<svg xmlns="http://www.w3.org/2000/svg" width="635" height="247"><title>career-finder-bg-tab</title><desc>Created with Sketch.</desc><g fill="none"><g><g><g><g fill="#312853"><g><path id="Shape" d="M14.92 203.4c-.46.07-.85.32-1.13.65h-.02l-5.58 6.5-6.4 1.1v.02c-1.05.2-1.76 1.2-1.57 2.26l1.13 6.43c.2 1.06 1.2 1.77 2.27 1.58l6.44-1.13 7.4 3.62c.36.17.77.24 1.2.16 1.06-.18 1.77-1.2 1.58-2.26l-3.06-17.34c-.2-1.07-1.2-1.78-2.28-1.6zm7.98.52l-1.5 2.15c1.93 1.7 3.32 4.04 3.8 6.76.48 2.73-.03 5.4-1.26 7.66l2.15 1.5c1.6-2.8 2.28-6.18 1.67-9.62-.6-3.44-2.4-6.37-4.87-8.46zm4.12-5.9l-1.5 2.16c3.42 2.77 5.92 6.73 6.74 11.4.83 4.7-.15 9.26-2.43 13.03l2.16 1.52c2.64-4.32 3.78-9.6 2.83-15-.95-5.38-3.83-9.94-7.8-13.1zm4.12-5.88l-1.5 2.14c4.94 3.83 8.52 9.43 9.7 16.06 1.16 6.63-.3 13.12-3.6 18.4l2.13 1.5c3.7-5.83 5.32-13 4.03-20.35-1.3-7.36-5.28-13.55-10.76-17.76z"/></g></g><g fill="#312853"><g><g><path id="Shape" d="M528.1 217.7h.02c.35.35.83.57 1.38.57 1.08 0 1.95-.88 1.95-1.96 0-.53-.22-1-.58-1.36l-1-1.02-3.56-3.55c-.34-.36-.83-.58-1.37-.58-1.08 0-1.95.87-1.95 1.95 0 .54.2 1.03.57 1.38l4.56 4.57zm20.95.57c.55 0 1.03-.22 1.38-.58l1.02-1.02 3.55-3.55c.35-.35.57-.84.57-1.38 0-1.08-.87-1.96-1.95-1.96-.54 0-1.03.2-1.38.57l-3.55 3.55-1.03 1v.02c-.35.35-.57.83-.57 1.37 0 1.1.87 1.97 1.95 1.97zm-9.78-3.9c1.1 0 1.96-.9 1.96-1.97v-5.2c0-1.1-.87-1.97-1.96-1.97-1.08 0-1.95.88-1.95 1.96v5.2c0 1.08.87 1.96 1.95 1.96zm-11.73 11.72c0-1.1-.88-1.96-1.96-1.96h-5.2c-1.1 0-1.97.87-1.97 1.95 0 1.07.9 1.95 1.97 1.95h5.2c1.1 0 1.97-.88 1.97-1.96zm23.9 9.4l-1-1c-.36-.36-.85-.58-1.4-.58-1.07 0-1.94.87-1.94 1.95 0 .54.22 1.03.57 1.38l1.02 1.02 3.54 3.55c.35.35.84.57 1.38.57 1.08 0 1.95-.88 1.95-1.96 0-.54-.22-1.03-.57-1.4l-3.55-3.54zm-21.94-1.58c-.54 0-1.03.22-1.4.57l-4.55 4.55c-.36.36-.57.85-.57 1.4 0 1.07.87 1.94 1.95 1.94.54 0 1.03-.23 1.38-.58l3.56-3.55 1.02-1.02c.35-.35.57-.84.57-1.38 0-1.08-.87-1.95-1.95-1.95zm28.68-9.78h-5.2c-1.1 0-1.97.87-1.97 1.95 0 1.07.9 1.95 1.97 1.95h5.2c1.1 0 1.97-.88 1.97-1.96 0-1.1-.88-1.96-1.96-1.96zm-18.9-5.87c-4.33 0-7.83 3.5-7.83 7.82 0 .66.1 1.3.25 1.92l.77 1.93c1.35 2.37 3.9 3.97 6.8 3.97 4.33 0 7.83-3.5 7.83-7.83s-3.5-7.83-7.83-7.83zm0 11.73c-2.17 0-3.92-1.75-3.92-3.9 0-2.17 1.75-3.92 3.9-3.92 2.18 0 3.93 1.75 3.93 3.9 0 2.17-1.76 3.92-3.93 3.92zm0 7.83c-1.1 0-1.96.87-1.96 1.95V245c0 1.08.87 1.96 1.95 1.96 1.1 0 1.96-.88 1.96-1.96v-5.22c0-1.08-.87-1.95-1.96-1.95z"/></g></g></g><g id="dribbble" fill="#312853"><g><g><path id="Shape" d="M98.92 126c-.27-1.34-.68-2.66-1.2-3.93-.53-1.23-1.18-2.43-1.94-3.54-.74-1.1-1.6-2.14-2.54-3.1-.95-.93-1.98-1.8-3.1-2.53-1.1-.76-2.3-1.4-3.53-1.93-1.25-.53-2.57-.94-3.9-1.2-1.4-.3-2.8-.44-4.2-.44-1.43 0-2.84.15-4.22.43-1.34.27-2.66.68-3.92 1.2-1.23.54-2.43 1.18-3.54 1.94-1.1.74-2.14 1.6-3.1 2.54-.93.95-1.8 2-2.53 3.1-.77 1.1-1.4 2.3-1.94 3.53-.53 1.26-.94 2.6-1.2 3.93-.3 1.37-.44 2.78-.44 4.2 0 1.4.14 2.82.43 4.2.27 1.34.68 2.66 1.2 3.92.54 1.23 1.18 2.43 1.94 3.54.73 1.1 1.6 2.14 2.53 3.1.95.93 1.98 1.8 3.1 2.53 1.1.75 2.3 1.4 3.53 1.92 1.26.53 2.58.94 3.92 1.2 1.38.3 2.8.44 4.2.44 1.42 0 2.83-.14 4.2-.43 1.35-.27 2.67-.68 3.93-1.2 1.24-.53 2.44-1.18 3.55-1.94 1.1-.75 2.14-1.6 3.1-2.55.93-.95 1.8-1.98 2.53-3.1.76-1.1 1.4-2.3 1.93-3.53.54-1.26.95-2.58 1.22-3.92.3-1.38.43-2.8.43-4.2 0-1.42-.14-2.83-.43-4.2zM78.5 112.38c4.5 0 8.6 1.68 11.75 4.44-.04.07-2.58 3.93-9.3 6.46-3.05-5.6-6.4-10.05-6.66-10.4 1.33-.33 2.74-.5 4.2-.5zm-4.28.52s-.03 0-.06 0c.02 0 .04 0 .06 0zm-3.34 1.18c.24.32 3.54 4.8 6.62 10.27-8.56 2.27-15.98 2.18-16.45 2.17 1.16-5.52 4.86-10.1 9.83-12.44zm-5.65 28.02c-2.83-3.15-4.56-7.33-4.56-11.9 0-.2 0-.38 0-.57.33 0 9.13.2 18.3-2.54.52 1 1 2 1.45 3.02-.23.07-.47.14-.7.2-9.62 3.12-14.5 11.77-14.5 11.77zM78.5 148c-4.15 0-7.94-1.4-10.96-3.76 0 0-.17-.12-.4-.3.13.1.26.2.4.3.06-.15 3.5-7.48 13.98-11.13.04 0 .08 0 .12-.03 2.5 6.52 3.54 11.98 3.8 13.53-2.13.9-4.5 1.4-6.95 1.4zm9.94-3.03c-.18-1.07-1.13-6.3-3.47-12.72 5.76-.92 10.74.65 11.1.77-.78 4.97-3.63 9.25-7.63 11.95zm-4.55-15.54c-.14-.3-.27-.6-.4-.92-.37-.86-.77-1.72-1.18-2.57 7.04-2.87 9.9-7 9.93-7.05 2.5 3.03 4 6.9 4.05 11.14-.26-.06-6.3-1.36-12.4-.6z"/></g></g></g><g fill="#312853"><g><g><path id="Shape" d="M21.08 38.56l-3.86.6c-1.07.18-1.8 1.18-1.63 2.25l1.2 7.74c.18 1.06 1.18 1.8 2.25 1.62l3.86-.6c1.08-.18 1.8-1.18 1.64-2.25l-1.22-7.7c-.17-1.08-1.17-1.8-2.24-1.64zm-2.03-12.88c-.17-1.07-1.17-1.8-2.24-1.63-1.06.17-1.8 1.17-1.62 2.24l1.73 10.94 3.88-.6-1.73-10.96zm14.17-2.24c-.17-1.07-1.17-1.8-2.24-1.63-1.07.18-1.8 1.18-1.63 2.25l2.55 16.1 3.86-.6-2.54-16.1zM47.4 21.2c-.18-1.07-1.18-1.8-2.25-1.63-1.07.17-1.8 1.17-1.63 2.24l.92 5.8 3.86-.6-.9-5.8zM21.07 63.65c.17 1.06 1.17 1.8 2.24 1.62 1.07-.17 1.8-1.17 1.63-2.23l-1.73-10.96-3.87.62 1.73 10.95zM48.6 28.93l-3.85.6c-1.07.18-1.8 1.18-1.63 2.25l1.22 7.73c.17 1.07 1.17 1.8 2.24 1.63l3.86-.6c1.07-.17 1.8-1.18 1.63-2.24l-1.22-7.74c-.17-1.07-1.17-1.8-2.24-1.63zm.82 30.24c.17 1.07 1.17 1.8 2.24 1.63 1.07-.17 1.8-1.17 1.63-2.24l-2.55-16.1-3.87.6 2.54 16.1zM35.25 61.4c.17 1.08 1.17 1.8 2.24 1.64 1.06-.17 1.8-1.18 1.62-2.24L38.2 55l-3.86.6.9 5.8zm.82-19.93l-3.87.6c-1.07.18-1.8 1.18-1.63 2.25l1.22 7.73c.16 1.07 1.16 1.8 2.23 1.63l3.87-.6c1.06-.18 1.8-1.18 1.62-2.25L38.3 43.1c-.16-1.07-1.17-1.8-2.23-1.63z"/></g></g></g><g fill="#312853"><g><g><path id="Shape" d="M519.78 34.8c0 .03.02.05.03.07.04 0 .07-.05.1-.07 0-.02-.03-.03-.05-.04.05-.04.06-.08.05-.16-.02 0-.04 0-.06 0 0 .02-.02.08-.03.1-.03 0-.05-.03-.06-.07-.06.06-.13.06-.06.17.02.02.07.02.1 0zm7.78-5c.13.03.2.1.32.15 0 0 0 .02 0 .04-.06 0-.13.02-.12.1.06 0 .1 0 .18 0 .02.03.04.05.05.07.05.03.1-.04.13-.05.1 0 .2 0 .3 0 0-.08-.1-.1-.16-.14-.1-.07-.14-.22-.17-.35-.05-.28.17-.2.2-.4-.05 0-.1-.02-.14-.04-.1-.02-.23.03-.3.05-.06 0-.1 0-.15 0-.05.04-.08.1-.14.14.02.02.05.04.1.05-.03.07-.1.18-.16.2-.05 0-.08-.02-.1 0-.04.03-.08.06-.06.14 0 0 .03.02.04.03.1.07.1-.03.18-.02zm-14.64-1.08c-.03 0-.06 0-.1 0 0 .03 0 .06-.04.07.04 0 .2-.04.23-.06 0-.02-.05-.02-.08-.02zm6.8-1.8c.05-.04.1-.06.13-.08.02.04.04.08.07.1-.05.03-.1.06-.15.08.03.1.28.3.4.25.1-.03.14-.14.23-.2.06.06.2.1.3.13-.13.13-.35.12-.5.2h-.02c0 .03.03.06.04.1.17-.02.3-.05.43-.06.02 0 .04.03.06.04-.06.1-.2.1-.36.1 0 .02-.03.04-.04.07.06.05.36.3.46.27.02-.02.04-.03.06-.04 0-.12.04-.2.1-.27.02 0 .08 0 .12-.02.02-.05.05-.1.07-.15.05-.1.05-.23.13-.28.06 0 .12-.02.18-.04.04 0 .08-.02.1-.04-.02-.05-.1-.1-.17-.13-.05-.03-.1-.02-.15-.05-.04-.04-.07-.1-.1-.14-.06 0-.1.05-.12.08-.02 0-.03 0-.04 0-.02-.06 0-.13 0-.2 0 0-.02-.02-.04-.03h-.1c-.05-.02-.08-.06-.15-.06-.02.02-.04.05-.07.08-.02.07.07.2.1.26-.03 0-.04.02-.05.03-.06 0-.2-.17-.22-.24-.05-.03-.07-.02-.12 0 0 .05-.02.1-.03.15v.02c-.05 0-.1-.02-.15-.03-.02-.04-.03-.1-.02-.16-.05 0-.12 0-.16.02-.03 0-.06 0-.1 0-.08 0-.13.04-.2.08.03.06.07.14.13.17zm2-.28c-.05.1-.07.16-.2.18v.07c.2 0 .37 0 .55.02.04-.03.08-.06.1-.08.06-.02.12 0 .18-.03.05-.02.1-.04.15-.07.07-.05.14-.1.2-.15 0-.04-.02-.06-.04-.1-.04 0-.08 0-.12-.02-.07 0-.16.02-.24.02-.02-.04-.03-.07-.05-.1-.02 0-.04-.02-.06-.02-.1 0-.15.1-.2.15h-.06c-.02-.06 0-.16 0-.22-.08.04-.08.15-.16.2 0 0-.02 0-.02 0-.1-.15-.22 0-.33-.07-.04-.04-.07-.08-.1-.13-.07.07-.12.14-.17.2-.06.05-.1.05-.13.12.15.1.43.04.68.04zm-8.76 1.68c.02.02.1.05.15.02.03 0 .04-.02.06-.03 0 0 .02 0 .04-.03-.05 0-.07-.05-.15-.03-.04.02-.1.04-.1.08zm.26-.46c-.05 0-.08-.05-.1-.07-.03 0-.1.04-.1.06 0 0 .06.07.07.08 0 0 0 0 .02 0s.14-.06.15-.07c0 0 .02-.02 0-.03 0-.02-.04 0-.05.02zm-.26.16c-.02.04.04.1.08.08.04-.03.03-.05-.03-.06 0 0-.02 0-.04-.02zm0 0zm6.26 6.3c.07 0 .16 0 .27 0 0-.03 0-.05.03-.06 0-.07-.02-.1 0-.14 0 0 0 0-.02 0-.02.02-.06.03-.1.04-.03.03-.05.1-.1.12-.05 0-.1 0-.15 0-.03.03-.05.07-.06.1 0 .02.02.03.04.05.03-.03.06-.04.08-.1zm-13.42 5.1s0 .02.02.03h.02s0-.02 0-.03c-.02 0-.03 0-.04 0zm21.48 4.87c-.03-.02-.07-.04-.1-.05-.08.05-.14.1-.25.14-.05 0-.1-.03-.13-.03-.05 0-.1.03-.12.04-.04 0-.08 0-.12 0-.06.03-.1.06-.15.1-.05.02-.08-.05-.15-.03-.06.02-.12.05-.18.08h-.1c-.07-.07-.15-.14-.2-.22-.03 0-.07 0-.1 0-.02 0-.02 0-.02 0v-.02c.04-.02.13-.05.17-.1 0-.1-.15-.13-.22-.2 0 0-.02-.08-.06-.1 0-.03-.04-.02-.07-.03-.05-.06-.1-.12-.17-.2-.02 0-.05 0-.08 0-.03-.03-.05-.08-.1-.1 0 0 0 .05 0 .07-.13-.1-.16-.4-.23-.56-.04-.08-.2-.1-.24-.17-.07-.08-.03-.32-.06-.46-.02-.1-.1-.23-.17-.28-.03-.02-.08-.03-.1-.06-.03-.05-.03-.1-.05-.16.02-.02.03-.03.05-.04-.04-.04-.07-.07-.1-.1-.1-.14-.16-.3-.24-.44-.05-.1-.1-.2-.12-.28-.06-.1-.17-.2-.2-.34.02-.03.03-.04.07-.06.05.16.14.32.26.42.02 0 .04 0 .06 0 .05-.1.03-.25.12-.32-.05-.13-.1-.25-.15-.37-.08.02-.1.08-.22.02-.06.05-.1 0-.17.02-.03-.03-.05-.03-.06-.08-.14-.03-.3 0-.4.07-.02.02-.05.04-.08.06-.06 0-.1-.04-.14-.05-.04 0-.08 0-.12 0 0-.02-.02-.03-.03-.05-.08-.02-.18-.04-.28-.06h-.2c-.04 0-.03-.08-.08-.1h-.1c-.04 0-.15-.02-.2-.04-.05-.02-.02-.08-.1-.1-.16-.08-.43.02-.5.13-.1.15.1.23-.1.34-.02 0-.05.05-.1.04-.1 0-.16-.1-.25-.14-.1-.03-.3-.04-.36-.08-.08-.04-.1-.2-.16-.22-.04-.02-.07 0-.1-.02-.02-.02-.03-.03-.05-.05-.04-.02-.1-.03-.13-.03-.06 0-.12 0-.2 0-.07-.03-.15-.06-.24-.1 0-.02 0-.04-.02-.07-.04 0-.04 0-.07.02-.06-.03-.12-.07-.14-.14.04-.04.22-.18.2-.24 0-.02 0-.05 0-.08-.23-.13 0-.18 0-.3-.04 0-.1.03-.13.06 0 0 0 0-.02 0 0-.03-.02-.05-.02-.1-.03 0-.06 0-.1-.03 0 0-.03 0-.05 0-.05.02-.17.14-.27.1-.02 0-.04-.04-.1-.05-.04 0-.05.03-.08.04-.05 0-.08-.04-.12-.06-.05.04-.1.08-.17.1-.1.02-.2-.08-.33-.05-.02 0-.05.02-.07.03-.05.02-.07-.02-.1 0-.04 0-.07.02-.1.03-.1.02-.2 0-.28.03-.07.02-.12.08-.17.13-.02 0-.04 0-.05-.02-.03 0-.14.05-.16.06-.06.04-.06.1-.13.12-.1.02-.2 0-.2-.06-.02 0-.24.07-.32.04-.1-.03-.13-.1-.2-.16 0 0-.03.02-.05.03-.04.04-.1.28-.16.35-.07.1-.2.1-.3.18-.05.02-.16.12-.18.15 0 .05 0 .1 0 .14-.03.05-.1.08-.1.14-.06.13.1.2 0 .35-.08.1-.28.27-.4.3-.05.04-.13.03-.2.06-.06.03-.07.18-.12.24-.04.05-.12.06-.16.1-.03.06-.07.14-.08.2 0 .04 0 .07 0 .1-.03.06-.12.1-.16.15-.04.1-.08.18-.13.28-.02.03-.05.06-.08.1-.03.05-.05.16-.04.25 0 0 .02-.02.03-.03.14 0 .15.22.08.3.16.13.07.37.02.52 0 .05 0 .1-.02.13-.02.1-.1.2-.17.24.12.05.12.18.18.2 0 .02 0 .03 0 .05 0 0-.02 0-.03 0-.03.05 0 .13-.02.18.05.1.02.02.1.07 0 0 0 .02 0 .03.02 0 .05.03.08.04.05 0 .1-.03.14 0-.02.04-.06.06-.05.12 0 0 .04 0 .06.02 0 0 0 0 0 .03.02.02.04.02.08.02 0 .02 0 .04 0 .07.04.04.1.08.17.1.02.02.02.04.03.07.02.04.07.06.1.1v.07s0 0 .03.02c0 .02-.03.03-.04.04 0 .06.1.12.16.13 0 .02 0 .03 0 .06.1.03.14.1.2.15.07.03.12.05.17.08.1.08.18.17.3.24.05.02.22.12.27.1.06-.02.13-.06.2-.1.06 0 .13-.03.2-.05.06-.02.2-.03.27-.02.02 0 .08.04.12.03 0 0 .02-.02.03-.03.02 0 .16.1.18.1.14-.05.27-.1.4-.17.06 0 .12 0 .17-.02.04-.02.04-.07.1-.08.13-.02.27-.03.4-.04.03 0 .03-.03.06-.04.05 0 .2.1.22.13 0 .03 0 .05.02.06.02 0 .03 0 .05 0 0 0 0 .02 0 .02 0 .02 0 .04 0 .06 0 .14.2.24.34.13.05 0 .14.03.2 0 0-.02 0-.03 0-.04.02 0 .1 0 .12.03.04.08 0 .1.14.1 0 .02 0 .02.02.03 0 0-.02.02-.03.03 0 .05.05.1.07.16 0 .02-.02.04-.03.07 0 .02 0 .04 0 .06 0 .07-.05.13-.1.17 0 0 0 0 0 .02.02 0 .04 0 .06 0 0 .06 0 .1-.05.1.04.04.07.07.1.1-.02 0-.05 0-.07 0-.02.08-.05.15-.13.18 0 .02.04.08.05.1.03 0 .05 0 .08.04-.02 0-.03.02-.04.03-.02 0-.02 0-.02 0 .03.05.06.1.1.13.02 0 .03 0 .06.03 0 0-.02.02-.03.02.07.04.1.08.15.14.07.06.14.13.22.2.02.02.07.13.08.16.02.04 0 .1.03.17.03.04.06.08.08.12 0 .04.02.08.03.12.03.1.1.12.08.25-.16.07.03.24.06.32 0 .07 0 .13.02.2-.02.07-.05.18-.1.22-.02 0-.04 0-.06.02 0 .02-.02.05-.03.08-.02.02-.04.04-.06.06-.05.14-.02.37-.13.46 0 .13-.03.3 0 .42.03.1.1.14.15.2.07.15.14.3.2.43.06.1.25.27.14.38.02.1.04.2.06.28 0 .04.03.07.04.1.02.06-.02.1 0 .14 0 .05.03.1.04.14 0 .03 0 .04 0 .06 0 .07.04.14.06.2.07.1.15.18.23.26.06.13.1.3.16.42.07.1.18.23.14.42-.03 0-.05 0-.07.02 0 .02.08.15.1.2 0 .02 0 .05-.03.08 0 0 .02.02.03.02 0 0 .02 0 .02-.02 0 0 0 0 .03 0 0 0 .02.02.03.03.03 0 .04 0 .08 0 0 .02 0 .04.02.06.02.04.07.06.1.07.05-.03.07-.08.12-.1.08-.02.17.03.24 0 .02-.02.04-.04.06-.06.1-.03.14 0 .2 0 .04 0 .06 0 .08-.02.08-.03.15.04.2.06.03-.02.05-.03.07-.06.04 0 .07 0 .1.02.02 0 .02-.03.03-.05.03-.03.2 0 .26-.04s.1-.1.16-.14c.28-.2.47-.44.67-.74.04-.07.16-.12.2-.2 0-.03-.03-.07-.03-.1.02-.02.05 0 .06-.03.05-.07.07-.24.06-.33-.03 0-.06-.03-.07-.05.04-.07.07-.13.14-.17.16-.1.35-.08.42-.25-.02-.04-.05-.02-.05-.05 0-.03.02-.05.02-.07.02-.08.02-.17.02-.25-.03 0-.04 0-.06 0-.03-.07-.06-.17-.03-.24 0-.05-.03-.08-.07-.1v-.13c.08-.06.16-.1.24-.17.1-.08.15-.2.26-.26.13-.08.3-.1.42-.2.1-.06.14-.17.2-.25 0-.03 0-.04 0-.06.02-.03.04-.05.06-.1 0-.02-.02-.02-.04-.03 0-.1 0-.2-.04-.27 0-.03.02-.04.03-.07 0-.08-.03-.2-.04-.26.03-.04.05-.07.07-.1-.05-.1-.12-.1-.18-.18-.06-.07-.1-.26-.05-.36-.02-.02-.03-.02-.05-.04.02-.04.06-.1.06-.14-.03-.05-.1-.08-.13-.14-.02-.06.04-.27.07-.3.02 0 .05 0 .06-.03.03-.03 0-.06.02-.1.02-.1.1-.1.12-.24.06-.03.12-.03.12-.13.06 0 .08 0 .12-.03.02-.03.02-.04 0-.06.14-.16.28-.3.4-.46.16-.13.35-.22.5-.34.06-.06.1-.13.16-.2.1-.14.28-.27.35-.45 0-.04 0-.07.02-.1.05-.08.1-.16.14-.23 0-.02 0-.04 0-.06.04 0 .07-.04.1-.07.03-.06.06-.12.1-.2 0-.04 0-.1 0-.16.02-.02.06-.04.06-.08s-.02-.08 0-.12c0-.03 0-.05.02-.08zm5.7.62c-.03-.12-.1-.18-.2-.25.02.06 0 .08 0 .13-.03.02-.03.03-.07.02 0 0 0 0 0 .02s.02.03.03.04c-.02.04 0 .05 0 .1v.2c.02.06.06.17.1.2.14.04.3-.08.3-.2 0-.07-.06-.12-.1-.17 0-.03 0-.06-.06-.08zM520.13 22c-11.52 0-20.86 9.34-20.86 20.86s9.34 20.87 20.86 20.87S541 54.38 541 42.86C541 31.34 531.66 22 520.14 22zm12.06 8.96c.03.03.06.06.08.1 0 0 0 .02 0 .03.02 0 .03 0 .05 0 .03.03.06.07.1.1-.1.02-.22.02-.24-.05-.02-.02 0-.1 0-.2zm-1.26.5c.02 0 .05.02.07.03.06-.02.1-.04.15-.06 0-.02-.02-.04-.02-.07.02-.05.1-.06.13-.1.05-.04.15-.1.17-.18 0-.05.02-.1.03-.13.02-.03.04-.04.04-.1-.06-.08-.13-.02-.16-.18 0-.1 0-.18 0-.26 0-.05 0-.1-.02-.14.03-.03.05-.06.07-.1.05.06.1.12.18.18 0 .02-.03.04-.03.06 0 .07.05.12.05.2.07 0 .15.04.2.03.02 0 .05-.02.07-.03.05.05.1.1.15.14-.14-.02-.3 0-.33.14.03.06.07.1.06.2-.02.04-.05.07-.08.1-.02.02-.04.04-.07.05 0 .04 0 .1-.05.13-.1.08-.2.1-.26.2-.07.03-.13 0-.18 0-.04 0-.07 0-.1 0-.15-.02-.28-.04-.33-.15.07-.02.16-.02.24 0zm-22.27-1.05c0 .02 0 .02 0 .03 0 0 .02 0 .03 0 .03 0 .07.02.08.04-.02.04-.1 0-.14 0 0 .05.17.03.2.08-.03.02-.07 0-.1.02 0 .04.1.02.1.06-.04 0-.06 0-.1 0v.02c.03 0 .05.03.1 0 0 0 .02 0 .03 0 0 .02 0 .05-.02.05-.03 0-.13 0-.15 0-.04-.02-.07-.04-.1-.06-.02-.02-.08-.04-.13-.05.07-.07.13-.13.2-.2zm-.58.54s.02.02.03.03c-.02 0-.05 0-.07 0 0 0 .02-.02.03-.03zm-3.65 9.25s.03 0 .04-.02c-.02 0-.04.02-.05.03zm-.3-2.97s0 0 0 .02c0 0 0 0 0-.02zm.13 9.33c-.03.04-.15.06-.22.03-.03 0-.04.03-.04.08 0 0-.02.02-.03.03 0-.02-.02-.04-.05-.04-.02 0-.04 0-.06.02-.15.07-.1.16-.14.3-.02 0-.03 0-.05 0-.04-.2-.1-.4-.14-.6 0 0 0 0 .02 0 .02.06.04.1.1.1 0 0 0-.03 0-.05.02.03.06.07.05.1 0 .02 0 .02 0 .03.1 0 .1-.03.17-.04 0-.07-.06-.08-.08-.13.02-.05.1-.08.13-.1 0-.02 0-.03 0-.05.14-.04.2 0 .25.1.03 0 .05-.02.07-.03 0 .03 0 .04.03.05-.04 0-.06 0-.08.03 0 .05.04.12.06.16zm15.86 13.25c-4.62 0-8.8-1.84-11.86-4.83.03-.04.08-.06.1-.1 0-.05.03-.1.04-.16.03.02.07.03.1.02.02.12-.12.2-.15.3.07-.05.16-.13.2-.22.03-.07.06-.15.1-.23.1-.18.3-.2.25-.56 0-.04-.02-.06-.03-.1.02-.03.07-.13 0-.17v-.02c.1.02.1-.04.15-.08.06-.05.32-.24.38-.25.04 0 .06 0 .1.02 0-.03.03-.06.05-.08.05-.03.1-.02.1-.1.06 0 .14 0 .2 0 .1.03.2 0 .3 0 0-.13.1-.17.2-.18-.02-.03-.02-.06-.03-.1.02-.08.08-.13.12-.2.02-.03.04-.08.06-.12.02-.03.07-.05.08-.1 0-.03 0-.07 0-.1-.02-.12.04-.2.12-.23 0-.04-.02-.1 0-.15 0-.07.05-.16.04-.24 0-.1-.03-.2-.04-.3.02-.13.06-.2.07-.32.03.03.04.05.05.07.08-.05.17-.2.2-.3.02-.04 0-.07.04-.1.02-.02.05-.03.08-.04.18-.13.3-.28.35-.55 0-.1-.1-.48-.14-.5-.12-.03-.23 0-.3-.04-.18-.1-.3-.28-.5-.36-.1-.05-.18 0-.28 0-.07-.02-.13-.03-.2-.04-.05 0-.12-.1-.18-.08-.1 0-.2.1-.26.14-.03-.13 0-.08.03-.16.02-.05-.07-.12-.1-.13-.02 0-.04.02-.05.03-.05-.1-.16-.1-.27-.14-.04 0-.07-.04-.1-.06-.04 0-.1 0-.14.02-.05 0-.06.08-.08.12-.05.07-.15.08-.2.16 0-.04 0-.06.03-.1-.1.02-.18.04-.27.03-.02-.05-.04-.1-.06-.15-.06 0-.13.1-.2.08 0 0-.02 0-.02 0 .05-.05.07-.14.1-.2.04-.07.14-.1.18-.15.05-.05.06-.13.13-.16.03-.03 0-.07 0-.1-.17-.03-.18-.24-.22-.38-.02-.05 0-.1-.05-.1-.03-.02-.04 0-.06 0 0 0-.2-.2-.26-.23-.08-.02-.15-.05-.22-.07-.06-.02-.22-.07-.32-.03 0 0 0 0 0 .03-.07 0-.14-.02-.2-.04 0 0-.02.02-.03.03-.03-.08-.13-.2-.24-.2 0 .03-.02.04-.02.05 0-.05-.02-.1-.03-.17-.04-.08-.2-.18-.3-.2-.05-.02-.1 0-.15 0-.05 0-.1 0-.13 0 .12-.04.1-.1.18-.15-.03-.03-.08-.04-.1-.06-.02 0-.03-.03-.04-.04-.03-.02-.1 0-.1-.03-.03.02-.04.02-.04.05-.02-.07-.07-.1-.13-.12v-.02c.03 0 .07 0 .1 0 0 0 .02 0 .03 0 0-.02 0-.03 0-.03-.08-.03-.27-.03-.35 0-.05.03-.08.1-.14.1-.17.04-.22-.1-.32-.1s-.24.05-.32 0c-.03 0-.02-.03-.04-.07-.03-.08-.13-.1-.25-.1 0-.03-.03-.1-.04-.13-.04 0-.07 0-.08.04 0 .02.02.04.03.05.03 0 .05 0 .06 0 0 0 .02 0 .03.02-.02.04-.3.1-.35.14 0 0 0 0 .02 0 0 .03-.02.03-.03.04.04.02.13.2.1.26-.02.03-.06.05-.1.05-.04-.03-.06-.1-.1-.15.02-.06.05-.12.1-.16-.02-.07-.05-.1-.07-.17.02-.04.1-.05.15-.06 0 0 .02-.02.03-.03 0-.04-.04-.07-.08-.08-.1-.05-.13.08-.18.1-.03.02-.06.03-.1.04.03-.03.04-.04.03-.07.02 0 .02 0 .03.03.04-.02.06-.05.08-.08-.05-.1-.1-.22-.22-.27-.04 0-.08 0-.13-.02-.03 0-.1-.03-.1-.02-.04.03-.07.05-.1.07-.02 0-.05 0-.07.02-.08.02-.1.07-.22.05-.02-.04-.05-.02-.07 0-.17-.85-.26-1.72-.3-2.6 0 0 .02 0 .03 0 .1-.06.1-.13.3-.08 0 0 0 0 .02.02-.03 0-.06 0-.1.02.08.05.17.02.28.05.07.02.13.07.22.1.04 0 .13-.02.17 0 .03.02.04.1.04.13.06.04.2.04.25.08 0 .04-.04.07-.07.08 0 0-.02.03-.04.04.1 0 .18-.03.26-.02.06 0 .13 0 .2.02.06 0 .12-.04.2-.04-.08-.07-.13-.1-.28-.1 0 0 0-.02 0-.02 0-.02 0-.04.02-.05-.06-.07-.24-.07-.32-.1-.03-.03-.05-.06-.08-.1-.08-.05-.2-.04-.3-.1-.05-.02-.1-.06-.13-.1h-.05c-.1 0-.22-.04-.36-.04-.07 0-.12.02-.17.02-.04 0-.07.03-.1.04-.02-.22-.04-.43-.04-.66 0-.26 0-.52.03-.78.04.05.08.12.1.14.05.02.1 0 .1.06 0 .08-.03.15-.04.23.03.03.04 0 .06 0 0 0 0 .02 0 .03 0 .02-.02.03-.05.04.04.05.06.1.1.14h.03c0 .03 0 .05 0 .07.02 0 .03 0 .05.02.03.06-.02.1.08.1.02.04.05.13.07.16.03 0 .08 0 .12-.02 0 .02 0 .03 0 .04.03-.1.1-.26.07-.4-.02-.05-.05-.1-.07-.16 0-.06-.02-.1-.03-.17-.04-.1-.2-.3-.17-.45.02-.07.04-.13.06-.2.05-.05.1-.1.12-.17.1 0 .2-.05.24-.12.03-.05.03-.1.08-.12.05-.03.14-.03.2-.05.03-.05.07-.1.1-.16.06 0 .1 0 .15-.02 0 0 .02-.03.04-.04-.02 0-.02 0-.03-.03 0 .02-.03.03-.05.04 0 0-.02 0-.03 0 0-.02 0-.03-.02-.04.02 0 .02.02.05.03.03-.03.03-.05.05-.06-.02-.03-.05-.05-.1-.05 0-.02 0-.02 0-.03.03 0 .06.02.1.03-.02 0-.02 0-.03-.02.04 0 .05.03.1.04 0-.02.03-.04.04-.06.02 0 .02 0 .04 0 0 0 0-.02 0-.02 0-.03 0-.04 0-.06-.02 0 0 0-.02 0s-.02.04-.03.06c-.02-.02 0-.04 0-.06 0 0 0 0-.02 0-.03 0-.07 0-.12 0 0-.02 0-.04 0-.07 0 .02 0 .03 0 .05 0 0 .02 0 .02.02 0 0 .03 0 .04-.02 0 0 0 0 0-.02 0 0 .02 0 .04.02 0 0 .02 0 .02-.02 0 0-.02-.02-.02-.03.02.02.03.03.05.02.02 0 .02.02.02.03 0-.04 0-.06-.03-.1 0-.02 0-.02 0-.03 0-.05-.04-.05-.1-.04 0-.04-.04-.06-.08-.07 0 0 0 0 .02 0 .03 0 .05.02.06.04.02.02 0 .02.04.02 0-.02 0-.03 0-.04 0 0-.02-.02-.03-.03 0-.02-.02-.03-.04-.04 0 0 .03.02.05.03h.02c0-.02 0-.03 0-.03s.02 0 .03 0c0-.02 0-.03-.02-.03-.04-.04-.06-.05-.1-.1.03.02.06.04.08.06 0 0 .02 0 .02 0 .02 0 .03 0 .04-.04-.03-.03-.16-.1-.2-.1 0 0 0 0 0-.02.04 0 .04.02.08.03 0 0 0-.02 0-.02.02.02.06.05.1.07-.02-.06-.06-.06-.07-.1 0 0 .02.02.04.03 0 0 .02 0 .02 0 0-.02-.02-.04-.02-.07-.02-.07.04-.03 0-.12 0 0 0 0 .02 0 0 0 0-.03 0-.04.02 0 .02 0 .02.02 0 0 0 0 0-.03 0 .02.02.02.02.03.02 0 .02-.02.02-.03 0 0 .02 0 .03-.02 0 0 0 .02 0 .03 0 .02 0 .02.02.03-.02 0-.03 0-.05 0 0 .02 0 .03-.02.04h.03c0 .03 0 .03-.04.03 0 0 0 0 0 .02 0 0 0 0 .03 0 0 .02 0 .02 0 .02v.02s-.02 0-.03 0v.02c.02-.02 0 0 .05 0 0 0 0 .02 0 .02-.03 0-.04 0-.06.02 0 .02 0 .03 0 .04.02 0 .04 0 .05.02 0 0 0-.02.03-.03 0 .04 0 .03-.02.05.02 0 .03 0 .04.02 0 0 0 0 0 .02 0 0 0 0 .03 0-.03.05-.06.1-.08.15 0 0 0 0 0 .02 0 0 0 0 .02 0 0-.03.02-.06.03-.08 0 0 0 0 .02 0 0-.04.03-.08.05-.1.02-.05.05-.06.06-.1 0-.03 0-.06 0-.08-.06-.02-.1-.14-.1-.2 0 0 .02-.02.04-.03 0 .02-.02.03-.04.05.04.04.05.1.12.1 0 0 0 .02 0 .04.04-.02.1-.07.1-.13 0 0 .02 0 .03 0 .02-.06.05-.13.06-.2-.05 0-.05 0-.07-.04.02-.02.02-.03.04-.02 0-.04.02-.07.04-.1 0 .02 0 .05-.02.08.12-.08.27-.14.48-.14 0-.03 0-.06.02-.08 0 0 .02 0 .04 0 0 0 0 .02 0 .05.04 0 .07-.03.08-.05.02 0 .02.02.02.04.04 0 .1-.02.14-.03 0-.02 0-.02-.02-.04-.02.02-.03.03-.05.04-.03 0-.04 0-.05 0 0-.08-.04-.13-.1-.14 0-.04.04-.05.08-.06 0 0 0 0 0-.02-.03 0-.03 0-.05-.03.03-.05.06-.16.12-.18v-.04c.02 0 .03-.02.05-.02 0 0 0 .02 0 .03 0 0 0 0 .02 0s.03 0 .02-.04c0-.02 0-.02 0-.03 0 0 0 .02 0 .03.02 0 .03 0 .04 0 0 0 0-.02 0-.03.02 0 .03 0 .04 0 .04 0 .07-.08.1-.13 0 .02 0 .03 0 .05 0 0 .03 0 .04 0 0 0 0 0 0-.03.03 0 .04 0 .07-.02 0 0 0 .03 0 .04.03-.03.04-.06.07-.07 0 0 .02 0 .03.02 0 0 0 0 0-.03.06 0 .07 0 .1-.03.02-.02.02-.02.02-.03h-.03s0-.02 0-.03c0 0 0-.03 0-.04.03 0 .1 0 .12.02.02 0 .05-.02.07-.03-.02-.02-.02-.03-.02-.04 0 0 .03.02.04.03.1-.02.13-.1.23-.1 0-.02 0-.04.02-.05 0-.02 0-.03 0-.04 0 .02 0 .03.02.06 0 0 0-.02.02-.02 0 .04-.06.08-.1.1 0 0 0 0 0 .03.06-.04.18-.03.27-.02-.06 0-.1.03-.15.04v.02c-.02 0 0 0-.03 0 0-.03 0-.04 0-.06-.05 0-.23.1-.27.15 0 0 0 0 .02.02-.02 0-.02 0-.03 0-.02 0-.05.02-.08.04 0 0 0 0 0 .02.03-.02.05-.03.07-.04 0 .02-.02 0-.03.02-.05.06-.02.12 0 .17.03 0 .04.03.05.05.03 0 .03 0 .05.02 0-.02 0-.03.02-.05.02 0 .03 0 .07 0V39s0 .02 0 .02c.04-.02.06-.1.13-.1 0-.04 0-.05 0-.08h.02s0 0 0 .02c.03 0 .04-.02.04-.03 0 0 0 0 0 .02.02 0 .05 0 .07 0 0 0 .02 0 .02-.04 0 .02 0 .02 0 .03.02 0 .02-.02.02-.03 0 0 0 0 .02 0s0 0 .02 0c.1 0 .18-.08.27-.08 0 0 0 0 0-.02.02 0 .04 0 .06 0 0 0-.02 0-.02 0 .03-.02.02-.02.04 0 0 0 .03-.02.04-.02-.02-.02-.04-.03-.1-.02 0-.02.02-.02.03-.03 0-.03-.02-.04-.04-.06-.05 0-.07.03-.08-.04-.05 0-.06.04-.1.05 0 0-.04 0-.05 0 0 0 0 0 0-.02-.05-.03-.08 0-.1 0-.02 0-.04-.02-.05-.03-.02 0-.03 0-.05 0-.02 0-.03-.02-.06-.03 0 0 .03-.02.05-.02-.06-.04-.2-.02-.17-.13 0-.02 0-.02-.03 0 0-.05 0-.06 0-.1 0 0-.05 0-.1 0 .06-.06.07-.04.1-.12 0-.02.02-.03.03-.04 0-.02-.02-.03-.02-.04-.02 0-.03.02-.04.02v-.02c-.05.02-.08.03-.12.05-.04-.05-.07-.08-.16-.1.03 0 .07-.03.12-.02.02 0 .04.02.07.03.06 0 .23-.1.25-.13-.06-.16-.27-.17-.44-.1-.17.07-.38.12-.52.23-.12.1-.2.23-.33.32.1-.2.3-.47.5-.58.06-.03.15-.02.2-.06.07-.05.05-.17.17-.22.08-.02.2 0 .3 0 .1.02.22-.02.33 0 .1 0 .2 0 .3 0 .16 0 .32 0 .4-.08.07-.06.12-.12.17-.18.1 0 .2-.02.3-.03.07-.02.2-.13.25-.17-.03-.05-.05-.08-.08-.12 0-.04.03-.1.05-.14 0-.06-.1-.1-.16-.12-.04 0-.08.02-.1.04-.02-.02-.03-.03-.04-.04 0-.03.02-.04.04-.06-.17-.16-.28.02-.4.08-.06.04-.14.04-.2.07 0-.04.02-.1.05-.13.04 0 .07 0 .1 0 .08-.03.1-.1.2-.12.07-.02.15-.02.18-.08-.07-.02-.14-.04-.2-.05-.08-.03-.14-.1-.23-.1-.06 0-.1.02-.17.02.02-.03.03-.07.05-.1 0-.06-.16-.18-.2-.2h-.07c-.03 0-.07-.1-.1-.15.05-.03.13 0 .18 0 0-.03 0-.05 0-.08-.04-.04-.1-.06-.15-.12.02 0 .04-.02.07-.03-.02-.13-.15-.05-.17-.23-.02 0-.04 0-.05 0 0-.04 0-.05.02-.08-.08-.1-.24-.37-.33-.42-.03.02-.04.05-.06.08-.08.06-.16.02-.06.15-.06.08-.12.1-.12.26-.04-.04-.04-.1-.1-.1-.03.03-.05.07-.07.1-.05.05-.17.04-.23.07 0 0 0-.03-.02-.04 0 0 0-.02 0-.04-.1-.15-.17-.08-.3-.03-.04-.05-.03-.07-.03-.13.03 0 .05 0 .08 0 .07-.1-.14-.4 0-.47 0 0 0-.03 0-.06 0 0 0-.02 0-.03-.03 0-.07.05-.12.03-.1-.02-.2-.08-.3-.1-.04-.04-.04-.04 0-.1-.03 0-.05-.02-.06-.03.07-.12.14-.24.22-.36 0 0 .05 0 .08 0 0 .02.03.04.05.05.03 0 .06 0 .1 0 .02.03.05.06.07.1.06.03.14 0 .22.03.13.05.26.1.4.14-.05-.14-.14-.24-.25-.32-.1-.06-.3-.1-.3-.26.1 0 .13.05.22.08-.02-.04-.03-.07-.03-.1.12.1.18.25.4.23.04.08.1.14.17.17-.02-.05-.05-.1-.07-.15.02 0 .05 0 .07 0 0-.1-.1-.15-.1-.27.06.04.12.1.15.18.03-.2-.1-.18-.18-.3 0 0 0-.02 0-.03.02 0 .04 0 .06 0-.03-.03-.07-.05-.1-.07-.06-.02-.1-.08-.14-.1 0 0-.02.02-.04.03 0 0 0 0 0 .02-.06-.08-.1-.17-.15-.26-.03 0-.07 0-.1 0 0-.02 0-.03 0-.04 0-.02.02-.04.03-.06.03 0 .06 0 .1 0 0 0 0-.02 0-.02 0-.02-.03-.04-.04-.05.03-.04.06-.08.1-.12.07.04.12.1.2.15.06.02.1 0 .15.03-.02.03-.03.06-.04.08 0 .05.04.07.06.1.03 0 .05-.02.08-.03.02.02.02.05.04.08 0 .03.13.08.16.07 0-.04 0-.08-.02-.13 0-.05 0-.1.02-.14.03.02.06.07.1.08.03-.05.08-.08.15-.1 0-.04-.06-.1-.1-.1 0 0 0 0 0-.02.1-.06.1.04.2 0 .02 0 .04-.06.06-.08 0 0 0 0 .02 0-.06-.05-.12-.1-.17-.13-.06.05-.1.05-.2.03 0-.03.02-.05.03-.08-.1 0-.2.02-.3.02v-.06c.03 0 .07-.02.1-.03h.02c-.04-.07-.1-.15-.18-.18-.02 0-.04 0-.05 0 .4-.5.82-1 1.28-1.48.02 0 .04 0 .05 0 .03 0 .06 0 .1.02 0 0 .02 0 .03 0 .02 0 .04 0 .06 0-.03.02-.04.02-.07.02 0 0-.05.02-.05.03 0 .02.08.07.12.06.02 0 .05-.02.08-.03.04 0 .07 0 .1 0 .07-.04.13-.08.15-.12.04-.05-.08-.08-.12-.1-.03 0-.06-.04-.1-.06-.02-.03-.07-.05-.12-.06 0 0 .02 0 .03-.02.02 0 .03 0 .04 0 .02 0 .04 0 .05 0 .05 0 .1.05.15.08.03.02.08.02.13.02 0 0 .02 0 .04 0 0 0 .02-.02.06-.02 0 0 0 0 0 .02.05 0 .06-.02.1-.03.02 0 .03 0 .05 0 0 .02-.03.03-.04.05-.02 0 0 .03-.02.04 0 0-.02 0-.03.02 0 0 .04 0 .03.03 0 0-.03.02-.04.02 0 0 0 .02 0 .03 0 0 0 0 .03 0 0 .02-.02.02-.03.03 0 0 0 .03 0 .04 0 .02-.02.02-.03.04.06 0 .05 0 .1-.03.02 0 .02.02.03.03 0 0 .02 0 .03 0 0 .04-.1.03-.12.04 0 0-.05.05-.05.05 0 .02-.02.02-.02.03-.02.02-.03.04-.04.06.05-.02.05-.04.1-.05.04 0 .02.06 0 .07-.03 0-.06 0-.08 0-.04 0-.06.03-.12.04-.03 0-.07 0-.1 0-.08.03-.1.1-.2.12.03 0 .07 0 .1 0 0 0 .04 0 .06-.02.02 0 .03 0 .05 0 .03 0 .07 0 .1 0 .02 0 .05 0 .08-.02 0 0 0-.02-.02-.02.03-.02.08-.02.1 0 0 .02-.05.02-.05.05 0 .04.1.04.13.07-.05 0-.1 0-.14 0-.04 0-.07 0-.1 0-.05 0-.08 0-.1 0-.06-.02-.1-.02-.14-.03 0 0 0 .02-.02.02 0 .02.1.04.13.04.02 0 .03 0 .02.02-.03 0-.1-.03-.14-.02-.08.02-.07.06-.1.1 0 .02-.03.05-.05.07.08.03.12-.04.15-.06 0 0 .03 0 .05-.02.04-.02.07-.04.14-.05 0 0 0 0 0 .02s.04 0 .08 0c0 0 .03 0 .04 0 0 0 .05-.02.03-.04.04 0 .07 0 .1 0-.02.02-.06.04-.06.06.02 0 .04 0 .04.03-.06 0-.13 0-.2 0-.02 0-.06-.02-.1 0-.02 0-.05 0-.07.02-.04 0-.07.03-.1.05-.03 0-.05 0-.07.02 0 .02-.03.03-.05.05.08.02.24-.03.34-.04.02 0 .04 0 .06 0 0 0 .03 0 .04 0 .02 0 .04 0 .06 0 .04 0 .06.04.1.06-.04 0-.07 0-.1 0-.12-.02-.25-.02-.4.02-.02 0-.05.02-.08.03.02 0 .06 0 .08 0 0 .02.02.04.03.05 0 0 .12.02.14.02.02 0 .02 0 .03-.02.05 0 .07.03.04.05-.04.03-.16.03-.2.05-.02 0-.02 0-.02 0 .02.02.1.03.14.03 0 0-.1.03-.1.03-.03 0-.04 0-.08 0-.02.03-.06.07-.02.1 0 0 .04 0 .04 0s-.03.02-.04.03c0 .02.03.02.05 0 .04 0 .1-.02.1-.04.05-.04.1-.08.15-.1.02-.02.03-.02.05-.03.03-.03.05-.05.08-.07.03-.02.07-.04.1-.05.03 0 .05-.02.08-.03.03 0 .06 0 .08-.02.02 0 .04 0 .06 0 0 0 .03 0 .04 0 0 0-.03.04-.04.05-.05.02-.15 0-.2.02-.03.03-.08.04-.1.06-.02 0 0 .02-.02.02 0 .02-.03.03-.07.04-.1.05-.16.1-.23.15-.02 0-.07.03-.08.04-.02 0 0 0 0 .02.05.03.07 0 .13 0 0 .02-.04.05-.1.06.04.03.1.03.12 0 .08 0 .06.07.04.1.03 0 .1-.03.12-.04-.02.04-.1.05-.13.1 0 0 .02.02.04.02.03 0 .04 0 .06-.02 0 0 0 0 .02.02l-.03.05c-.02 0-.03 0-.03 0 .02.04.06 0 .1.02.02 0 .02.03.03.05-.1.02-.06.1-.1.16 0 0 0 .06 0 .08 0 0 0 0 .02 0s.04-.02.05-.03c.03-.02.07-.05.08-.08 0-.02 0-.03 0-.04 0-.02.02-.04.03-.05.04.02.05.04.06.06 0 0 .02-.02.03-.03 0-.03 0-.06 0-.1 0-.02 0-.04 0-.06.03 0 .04 0 .06.02 0 0 0 0 0 .02s0 .05.03.06c.03 0 .06 0 .1-.02 0 .02.02.1.04.1s.04 0 .06.02c.02 0 .03.03.05.04-.04 0-.13-.02-.15-.04-.02-.02-.02-.06-.05-.06-.04 0-.1.03-.1.04 0 0 .04.02.03.04 0 0-.03.02-.05.03-.04.02-.07.04-.12.07-.02 0-.06 0-.07.02 0 .02.07.03.1 0 .07 0 .13-.03.18-.06 0 0 .02 0 .03-.02.02.02.05.03.06.04 0 0-.04 0-.06.02-.06.02-.12.03-.18.05-.02 0-.06.03-.08.02 0 .03.03.04.03.06 0 0 .02 0 .02 0-.02.02-.05.02-.07.03.04.03.03.04.04.1.05 0 .08-.04.12-.05 0 0 .04 0 .08 0-.05.02-.1.06-.14.1.04 0 .07-.02.12-.02.04 0 .08.02.07.06 0 .04-.1.04-.05.1.03 0 .05-.02.08-.02 0 0-.03.04-.02.05.07 0 .08-.06.13-.1 0 .02 0 .02.02.02 0 0-.03.03-.04.04-.03.04-.05.1-.08.13-.02.03 0 .07.05.08h.1c.03 0 .06 0 .1 0 0 .02 0 .04 0 .05 0 0-.02.02-.04.02 0 0 0 0-.02.02 0 0 .02 0 .03.02.04 0 .07-.02.1-.03 0 0-.02.02-.03.02-.04.02-.07.03-.07.06.07 0 .1-.03.15-.05.02.05-.06.06-.07.1 0 .02.02 0 .03.03 0 0-.03.02-.05.03.03.03.07.05.12.02 0 0 0 0 .02 0 0 0 0 0 .02 0 .03-.02.02-.04.08-.03 0 0-.04.02-.1.03.05.02.17 0 .2.04 0 .02-.05.05-.02.07 0 0 0 0 .02 0 0 0 .03-.03.06-.04 0 0 0 0 .02 0 0 .03.02.05.02.07 0 .02-.05.03-.1.04.06.02.13.03.2 0 .02-.02.03-.02.05-.03 0 0 0 0 .03-.02.03 0 .05.02.07 0 .02 0 .04-.02.07-.03.02 0 .06 0 .06-.02.04 0 .08-.02.07-.04-.06-.02-.02-.05.03-.06.02 0 .02.02.04.04 0 0 0 0 .02 0-.03.03-.08.07-.08.1 0 0 .02-.03.04-.04.02 0 .04 0 .05 0 .02-.02.03-.03.05-.04 0 0 0 .03.02.03 0 0 .04 0 .04.02s-.04.03-.06.05c0 0 0 .02-.02.03-.03.02-.05.04-.07.05.03 0 .04 0 .07 0 0 0 .02 0 .03.02.05 0 .03-.06.06-.08.02-.02.06 0 .06 0 0 .04-.05.06-.02.1.04 0 .06-.05.07-.07 0 0 .03-.02.04-.03 0 .03 0 .06-.03.1 0 0 0-.02 0-.02.05.03-.08.08-.04.12.04 0 .07-.02.12-.02.03 0 .03.03.06.03 0 0 .02 0 .02 0 .04 0 .03-.07.07-.08.04 0 .1 0 .13 0s.06 0 .08 0c.03 0 .06.02.08 0 0 0 0 0 .02-.02.02-.05-.06-.04-.05-.07-.02 0-.04 0-.06.02-.05.02-.1 0-.1-.03.1 0 .26-.07.26-.1-.02 0-.03 0-.04 0-.03 0-.04 0-.07 0-.03 0-.08 0-.1-.03.05-.02.1-.03.13-.03 0 0-.04-.02-.06-.02.02 0 .05 0 .06-.02.02-.04-.03-.05.04-.08-.03-.02-.12 0-.13-.03-.02 0 0-.02 0-.02 0-.04.08-.03.1 0 .02-.02.03-.02.03-.02.02 0 .03-.07 0-.08.04-.02.04-.04.05-.06 0 0 0 0 .02-.02-.03 0-.06.02-.08 0 .06 0 .08-.05.1-.08-.02-.03-.06-.06-.07-.1-.07 0-.14-.03-.18-.07.05 0 .14.04.18.02-.03-.02-.08-.02-.1-.04 0-.02 0-.05-.03-.06.03-.02.06-.04.1-.06.02 0 .06-.02.08-.03-.02-.02-.02-.03-.03-.04 0-.02-.07-.04-.04-.08.03 0 .1.04.14.03-.02-.02-.08-.04-.07-.06.03 0 .05 0 .08 0 0 0 .02 0 .02 0-.02-.03-.04-.03-.06-.05.03-.02.06 0 .07-.02.03 0 .02-.03.04-.04 0 0 .04 0 .05 0 0-.03 0-.04 0-.06-.05.02-.1 0-.13 0 0 0-.03 0-.04 0 0 0-.03 0-.04-.02.02 0 .05 0 .08 0 .02 0 .05 0 .08 0 .02 0 .06 0 .07 0 0-.03-.03-.06-.05-.07 0-.02-.03-.03-.04-.04 0 0-.02 0-.02-.02-.02 0-.05 0-.06 0-.03 0-.07-.02-.1-.03.02 0 .05 0 .07-.02.03 0 .06-.04.1-.05.04 0 .06 0 .1 0 0-.03-.05-.03-.06-.05.03 0 .02-.03.02-.04 0-.02-.02 0-.03-.02 0 0 0-.02-.02-.03 0-.02-.02-.02-.03-.03-.06-.03-.13 0-.13-.06-.02 0-.03 0-.04 0 .13-.06.1 0 .2 0 .03 0 .06-.03.07-.04.03-.02.06-.1.02-.12-.03-.02-.08 0-.12-.02.1 0 .1-.02.1-.08.03 0 .04.03.07.03 0 0 0 0 .02 0 0-.02-.02-.05-.03-.07 0 0 .02 0 .04.02 0 0 0 0 .02 0 0 0 0 .02.02.03.02 0 .08 0 .1-.02.02 0 .02-.04.04-.05 0 0 .02 0 .02 0 .1-.07-.1-.08-.08-.1 0-.02.03-.03.04-.04.03-.02.06-.05.08-.07 0 0-.02 0-.02 0 .03-.02 0-.05 0-.07.03 0 .1 0 .14 0-.02.02-.02.06-.04.1 0 .02-.04.04-.04.06 0 0 0 .02 0 .02.02.02-.02.05 0 .07.02 0 .05 0 .08 0 0-.02 0-.05-.02-.07.05 0 .08-.05.1-.07 0 .02 0 .05.03.05h.02c.04 0 .07-.06.08-.08.02 0 .1.02.12-.02 0-.02 0-.04 0-.06 0-.02.04-.04.03-.05 0-.04-.08-.03-.07-.06 0-.03.13-.03.16-.03 0 0 .02.02.04.03.04 0 .06-.03.07-.05.02-.03.03-.08.05-.12 0 0 .02-.03.02-.05 0 0 0-.05 0-.06-.02 0 0 0-.02 0 0-.03.04-.04.05-.07 0 0-.02 0-.03-.02 0-.02-.02-.06 0-.08 0 0 .03-.03.03-.05 0-.02-.02-.05 0-.07 0-.02.07-.03.1-.06 0 0 0-.02 0-.03 0-.02.08-.07.03-.1 0 0-.04 0-.06 0 0 0 .02 0 .02-.02 0-.04-.1-.06-.1-.08 0 0 0 0 0-.02.03.03.1.06.16.06.03 0 .06 0 .1 0 .02 0 .04.02.07.02.03 0 .1 0 .13-.03 0-.03-.06-.03-.08-.05.06 0 .05-.02.1.02.02 0 .05 0 .06-.02 0-.04-.04-.06-.03-.1.03 0 .06.05.1.03.05 0 0-.05.05-.07.03 0 .06-.02.1-.03.02 0 .04-.04.08-.05.02 0 .04-.02.06-.03.02 0 .02-.03.04-.03.03-.02.1-.07.1-.1 0 0 .02 0 .03 0 .03-.03.08-.02.06-.04 0 0 0 0 0-.02s.02-.03.05-.04c0 0 0 0 0-.02 0 0 .02 0 .03 0 0-.04 0-.06-.03-.07 0-.03.05-.03.07-.05 0-.02-.02-.04-.04-.04.02-.02.08-.02.1-.05-.02 0-.04 0-.05-.03 0 0 .05-.04.1-.03-.03 0-.05-.03-.08-.04-.05-.05.1-.1.14-.13-.02 0-.02 0-.03 0 .03 0 .05 0 .07 0 0-.02 0-.02 0-.02 0-.02 0-.02-.03-.03 0-.03.05-.06.07-.08.02 0 .03 0 .04 0 0-.02 0-.04 0-.07-.04 0-.04.03-.05.04-.04.03-.08.05-.1.07-.04 0-.12.03-.16.03-.03 0-.06 0-.1 0-.06.02-.13.05-.18.04 0 0-.02-.02-.02-.03-.05.04-.1.1-.13.13 0 .03-.03.05-.06.07-.02.03-.03.06-.06.07-.04.02-.08 0-.12.02-.04-.02-.07 0-.1 0-.02 0 0 0 0 0 0-.03.03-.04.07-.04.02 0 .04 0 .05 0 .04-.03.03-.08.06-.1.02-.02.1-.04.1-.06.02 0 0-.03-.02-.03-.03 0-.02 0-.04.02h-.08c-.05.04-.12.1-.2.1 0-.02 0-.03 0-.03-.05 0-.1.05-.1.07 0 0-.02 0-.02 0-.04-.05.16-.14.1-.2-.03-.02-.06-.02-.1-.03.08 0 .15-.03.2-.05.02 0 .02 0 .03 0 .04-.02.07-.03.1-.05.02 0 .1-.1.1-.13 0 0-.02-.04-.03-.04 0 0-.03-.02-.04-.02-.08 0-.08.03-.13.04-.06.02-.1 0-.13.05-.03 0-.05-.03-.08-.03s-.07.02-.08.03c0-.03.06-.04.06-.06 0-.03-.1-.05-.13-.05 0 0-.03 0-.05 0-.04 0-.1-.02-.1-.05.02 0 .03 0 .05 0 .02 0 .1 0 .1 0 .1.03.18.05.25.1.06-.03.1-.07.18-.07.06 0 .1.02.17.02.02 0 .02-.02.04-.02.03 0 .06.02.1.04 0 0 .02 0 .04 0 0 .03.02.04.03.05 0 0 .02 0 .03 0 0 .02.02.04.03.05.02.03.08.04.13.05.06 0 .12 0 .17-.03.02 0 .03-.02.03-.03 0-.02-.08-.04-.07-.1 0 .03.1.1.13.1.02 0 .04 0 .06 0 0 0 0-.02.02-.03.02-.04-.05-.05-.07-.07 0 0 0 0 0-.02 0 0-.02 0-.03-.02 0 0 0 0-.03 0 0-.02.02-.07-.05-.05 0 0 0 0 0-.02 0 0 0 0-.02 0-.03-.07-.02-.1-.1-.13h-.02c0 .03 0 .07 0 .1-.02 0-.02 0-.02 0 0-.02 0-.04-.02-.06 0-.03-.03-.07-.02-.1-.04 0-.04.04-.07.06 0-.04-.02-.04-.07-.04 0 0 0-.02 0-.04 0 0 0 0-.02 0 0 0 0 0-.02 0-.04 0-.06 0-.08 0-.1 0-.1.03-.16-.03-.03 0-.13 0-.17 0 0 .02 0 .04-.02.06-.02.03-.03.05-.04.07-.03 0-.1-.04-.08-.07 0 0 .02 0 .03-.02.02 0 .06-.06.05-.07 0 0-.05 0-.07-.02-.03 0-.05-.02-.08-.02s-.04.02-.05.03c0 0-.02 0-.03.02-.02.02-.02.04-.03.06-.02-.03-.06-.05-.1-.04 0-.02.05 0 .08-.02.04-.02.05-.08.1-.1-.05-.02-.1-.03-.16-.04-.02.02-.03 0-.06.02 0 0-.03.02-.04.03-.05.03-.07.05-.07.1-.02 0-.03 0-.04-.02-.08-.04.06-.05.06-.1 0 0-.04 0-.05 0 0 0 0 0 0-.02.04 0 .1-.03.13 0 .04-.02.06-.06.07-.1 0-.03.06-.05.1-.06-.04 0-.08-.02-.1-.04.04 0 .08 0 .13 0 0 0-.02 0-.03-.02 0-.04.1-.06.17-.07 0 0 .02 0 .03-.02 0 0 .03 0 .04 0 .03 0 .03 0 .04 0 0 0-.02.02-.03.03-.02 0-.13 0-.15.03.03.02.06.04.1.05.03 0 .1 0 .14 0h.05c.03-.05.06-.1.07-.14 0 0 .02 0 .03 0 .02 0 .1-.03.1-.03.03-.02-.06-.12-.1-.12 0 0-.03 0-.06 0-.04 0-.16-.03-.18.02 0 0 0 0 .02.02-.03 0-.07 0-.1 0 0-.02.02-.05 0-.07-.02 0-.05 0-.06 0 0 0 .02-.02.03-.02.03-.04-.04-.06-.06-.08.03 0 .05 0 .1 0 .04 0 .07-.04.13-.05.04 0 .05.02.1.02 0 0 0 0 .02 0 .04-.04.07-.07.06-.1 0-.03-.07-.06-.1-.05-.06.02-.1.05-.16.07 0 0-.02.02-.04.03 0-.02 0-.05 0-.07-.02-.03-.05-.04-.06-.07-.1.02-.06.05-.1.08-.06.03-.1 0-.16 0 .02-.02.1 0 .13 0 0 0 0-.02.02-.03 0-.02.02-.04.04-.06 0 0-.03 0-.04 0-.02 0-.05 0-.08 0-.05 0-.1 0-.14 0 .03 0 .04-.02.05-.03 0-.02-.05-.02-.07-.03.04 0 .1 0 .14 0 .04 0 .07.03.1.03.04-.02.06-.05.1-.04.02 0 .03.03.05.03.04 0 .06-.04.04-.07-.04-.05-.1-.06-.13-.1-.02 0 0-.02-.02-.03-.03-.02-.08 0-.13 0-.02 0-.03 0-.05 0-.02 0-.04.02-.06.02-.02 0-.05 0-.08.02.05-.02.06-.04.1-.06 0-.02.06-.03.08-.05 0 0 .02 0 0-.03 0 0-.02 0-.04 0 .04-.02.08-.04.1-.06.03.02.05.02.06.03.02 0 .04.02.06.04 0-.03-.02-.04-.04-.05 0 0-.02-.02-.03-.02 2.23-1.07 4.7-1.7 7.34-1.7 3.14 0 6.07.88 8.6 2.37-.1.04-.17.1-.22.18-.03 0-.08-.02-.1-.02-.05 0-.13.1-.15.15 0 0 0 .02-.02.03.02.03.05.05.07.07-.07.05-.16.03-.2.1.02.03.04.05.06.07 0 .02 0 .04 0 .06-.26 0-.22.07-.37.14.15.16.17.03.35.06.1 0 .15.06.23.08.07-.04.1-.1.16-.16 0-.02 0-.03 0-.05-.03 0-.05-.03-.07-.04 0-.03.02-.04.04-.06.05 0 .08.02.1.03.04-.03.1-.07.14-.1-.02-.02-.03-.03-.04-.05 0 0 0-.03 0-.05 0 0 .02 0 .03-.02.07 0 .17.03.23 0 .02 0 .05-.03.07-.05 0-.02.03-.03.04-.05-.02 0-.04-.02-.05-.03 0-.02.03-.05.06-.06.54.32 1.07.68 1.56 1.08 0 .02 0 .03 0 .05-.04.05-.07.1-.1.16-.1.1-.35.1-.3.3.03 0 .06 0 .1.02.1.24-.07.2-.1.33.05.07.2.04.24.1.02.03 0 .08 0 .1.04.1.1.12.2.1 0 .07-.07.18-.12.2 0 .02-.03.02-.05.02-.23-.23-.57-.36-.94-.46-.08-.02-.3-.08-.42-.05-.05 0-.07.06-.12.1.04.05.08.1.12.15 0 .14-.08.1-.2.13 0 .02-.02.07-.03.1-.05.03-.1-.02-.13-.06.02-.03.04-.05.06-.08-.1-.06-.18-.07-.3 0-.02.04-.05.06-.08.08-.06.02-.1-.02-.15-.03-.07-.02-.18 0-.23.02-.06.02-.06.1-.12.14 0 0-.02 0-.03-.03-.1 0-.14.05-.24.02 0-.05 0-.05.02-.07.02 0 .05 0 .07 0 0-.08 0-.12.02-.17-.26 0-.12.13-.3.17 0-.03 0-.05-.02-.08-.1.04-.17.08-.26.1-.15.07-.3.13-.43.2-.04 0-.08 0-.1.02-.07.05-.04.2-.1.23-.04 0-.08 0-.1.02-.24.04-.3-.06-.42-.16.02-.13.18-.13.33-.14-.03-.07-.1-.22-.2-.24-.06 0-.12 0-.18.02-.06-.02-.1-.04-.14-.02 0 .1.1.1.08.2-.04.07-.07.12-.1.17 0 .04.04.06.1.07.04.15 0 .14-.03.26 0 .03 0 .05-.02.07-.1 0-.2-.12-.35-.1-.1.16-.32.15-.44.28.02.12.18.2.1.3-.02 0-.04 0-.06 0-.05 0-.1.02-.15 0-.16-.04-.3-.1-.4-.17-.08 0-.07.05-.1.08 0 .04.07.13.12.15.04 0 .1 0 .12 0 .1.17-.06.15-.17.13-.05 0-.1 0-.14-.02 0 0-.03-.04-.04-.07-.06-.02-.14 0-.2-.03-.03-.02-.13-.3-.14-.35.08-.02.1-.12.05-.2-.04-.03-.14-.04-.2-.08-.08-.06-.15-.14-.23-.2.15-.1.17.04.23.08.04 0 .1 0 .13.02.33.1.85.34 1.2.08.07-.05.15-.1.15-.22-.05-.05-.05-.07-.05-.16-.06-.05-.14-.1-.22-.13-.07-.02-.15-.05-.23-.07-.08-.07-.16-.14-.24-.2-.04-.02-.1-.03-.13-.04-.07-.03-.14-.05-.2-.08-.13 0-.25 0-.37-.02 0 0-.03.03-.05.04 0-.03 0-.06 0-.1-.13 0-.24-.03-.24-.17-.04.02-.08.05-.12.07-.03 0-.07 0-.1.03-.07-.05-.14-.02-.23-.02-.06-.06-.15-.08-.2-.14.16 0 .3.02.4-.06 0-.02 0-.03 0-.05-.03 0-.05-.02-.07-.03-.04-.02-.1 0-.12-.02-.06-.02-.1-.08-.2-.1-.03.04-.08.1-.1.18 0 0-.04-.02-.07-.02.03-.1.04-.12.1-.18-.04-.05-.12-.02-.17 0-.03.08-.08.15-.16.2 0-.07 0-.13 0-.2-.1.07-.22.18-.26.28 0 0-.03 0-.04 0 0-.16.08-.18.14-.26-.18-.02-.2.04-.3.13-.02.03-.05 0-.08.02-.05.03-.1.12-.1.18-.14-.07-.2-.18-.26.05-.03-.02-.06-.05-.08-.07 0 0 0 0-.02 0-.03.05-.06.08-.13.08-.02.07-.05.12-.1.15 0-.03.02-.08.03-.1 0-.02 0-.03 0-.03s0 0-.02 0c-.05.02-.1.14-.13.2-.08-.02-.1-.06-.2-.03 0 0-.02-.03-.04-.04-.03.16-.05.07-.13.13-.04.03-.02.08-.1.1 0 .02-.02.03-.03.04 0 .02.03.03.05.04v.02c-.04.03-.08.03-.13.02 0 .03.02.06.02.1-.02 0-.03.03-.04.05 0 0 0 0-.02 0-.03-.02-.04-.03-.05-.06h-.02c-.04 0-.04.05-.08.07 0 .02 0 .04.02.06v.02c-.03 0-.05.02-.06.05-.03 0-.05-.02-.08-.02-.03.03-.04.06-.08.07 0 .02 0 .03.03.04-.02.06-.13.07-.17.1 0 0 0 0-.02 0 .02.03.03.05.04.07-.04 0-.07.02-.1 0-.03.03-.04.06-.05.08.02.03.06.04.08.1-.02 0-.05 0-.07 0 0 .03 0 .06 0 .1-.12-.04-.12.05-.16.12 0 0 .02 0 .04.02 0 0 0 .04 0 .07-.02 0-.04 0-.07 0-.05.05-.08.1-.13.15 0 0 0 .03 0 .04-.03.03-.04 0-.1 0-.05.03-.16.12-.2.18 0 .03 0 .05 0 .07-.03.05-.1.07-.1.12 0 0-.02 0-.02 0s-.03 0-.04-.02c-.05-.03-.15.1-.14.16-.06-.02-.14-.02-.22-.02l-.02.02c0 .05.05.07.1.07-.04.05-.1 0-.18 0 0 .06 0 .08-.05.1-.07-.03-.1.03-.16.05 0 0 0 .02 0 .03 0 .03.04.04.06.06-.04.02-.08.02-.13.02 0 .05 0 .1-.02.14.02.03.03.06.07.07-.04.03-.06.04-.08.1.04.03.06.03.1.02 0 0 0 .02 0 .02 0 .03-.05.05-.07.08.03.05.07.02.14.03 0 .03 0 .06-.04.07 0 0 0 0-.02.02 0 0 .02.02.03.02.05 0 .07 0 .1-.02-.02.03-.05.04-.1.04 0 0 0 0 .02.02-.03 0-.04 0-.06 0 0 0 0 0 0-.02-.03 0-.05.03-.06.05 0 .02 0 .04 0 .06.02 0 .03 0 .03 0s0 0 0-.02c0 0 .02 0 .02.02.03 0 .04 0 .06-.02 0 0 0-.03 0-.05.02.02.03.02.03.05.02-.02.04-.03.06-.05-.02.02-.04.03-.05.05.02.02.03.02.06.02-.02 0-.04.03-.07.04 0 .02 0 0 0 .03.04.02.03 0 .07 0-.02.02-.03.02-.04.04 0 0 0 .02.02.02-.03 0-.05-.03-.06 0 0 0-.02-.02-.02-.04 0 0-.02 0-.03 0 0 .03 0 .05-.02.07.02.03.03.05.04.08.07.02.1.05.2.07-.02 0-.03.02-.04.03 0 0 .02 0 .03 0 .03 0 .04 0 .04.03.05 0 .2 0 .23-.03.07-.07.16-.12.23-.2.03 0 .03-.03.07-.05.02 0 .05.02.1 0 .03-.04.04-.1.04-.15.02 0 .03 0 .04-.02 0 .04 0 .05 0 .07.03.05.03.1.1.06 0 .04 0 .05 0 .08.02.02.02.12.02.17.02 0 .03 0 .04 0 0 0 0 .02 0 .03.04 0 .03 0 .06 0 0 .03 0 .07-.03.1.03.04.06.06.05.14 0 0 .03 0 .04 0 .03.1.1.15.15.2 0 .02 0 .03 0 .05-.02-.02-.03-.02-.04-.02v.04s-.03 0-.04.02c.02.05.05.1.1.14-.02.04-.03.05-.04.1.1 0 .17-.03.25 0 .02-.02.02-.03.03-.04.02-.02 0-.03 0-.05 0-.05 0-.1.05-.1 0 0 0 0 .02 0 0 0 0-.02 0-.03.08 0 .13 0 .18-.02 0 0 .03.02.04.03.05-.06.1-.13.12-.2 0-.03 0-.05 0-.08.02-.04.03-.06.05-.1 0 0-.02-.02 0-.05-.02 0-.03 0-.04-.02v-.05h.04c.06-.05-.03-.16-.04-.2.04 0 .07 0 .1 0 0-.02.02-.03.02-.04.1.03.07-.08.12-.1v.06c.02 0 .03 0 .04 0 0-.05.04-.06.08-.07 0 0 0-.03 0-.04 0 0 .02-.02.04-.02 0 0 0 0 0-.02h-.03c-.06 0-.1.06-.18.04-.07 0-.1-.1-.2-.06.02 0 .02-.02.03-.03.02 0 .2.04.24.07.05.02.18-.08.2-.1h.04c0-.06-.04-.07-.05-.12-.07 0-.12-.07-.15-.13-.02 0-.03 0-.05 0-.02 0-.04-.03-.1-.03 0 0 0 0 0-.02.04-.02-.03-.2 0-.26 0 0 .02 0 .04 0 .03-.12 0-.14 0-.24 0 0 .04.02.06.02 0 0 .03-.03.04-.05 0-.02 0-.05 0-.07h.08c.05-.08.07-.08.14-.13.03-.02.03-.06.07-.08.02 0 .04.02.05.03.06-.05.13-.1.2-.14.04-.05.05-.12.12-.16-.02-.04-.06-.06-.07-.1 0 0 0 0-.02 0 .05-.02.1-.06.1-.1.03-.02 0-.04-.02-.06.05-.07.07-.03.12-.06.06-.05.06-.13.14-.17.03.04.07.06.1.08 0 0 .14-.02.2-.02.05.04.07.07.17.07.02.02.02.03.03.04 0 .03 0 .08 0 .1 0 .02 0 .03.02.04 0 .02 0 .04 0 .06-.02 0-.05 0-.07 0-.07.02-.36.32-.4.38h-.02s-.02-.02-.03-.04c-.06.06 0 .13-.1.18-.04-.02-.07-.02-.1 0 0 0 0 .02 0 .04-.04.05-.07.07-.1.14.02.02.05.03.06.04 0 .07-.02.1-.03.15.02.03.05.06.07.1 0 .03 0 .05-.02.08-.02.12 0 .2.1.25.02.02.03.04.08.02v.05c.03 0 .06-.02.1-.02 0 0 0 .03 0 .04 0 .03 0 .05.04.06.05.03.13 0 .16-.02v.02c.04 0 .05-.02.08 0 .03-.04.05-.04.1-.06 0 0 0 0 0 .02.04-.02.1-.03.12-.07.02.03.03.04.05.05.02-.05.07-.02.1-.05.02 0 .03-.04.03-.06v.03c.03 0 .05.02.07.03.02-.02.03-.03.06-.04.02 0 .04.02.05.03.04-.05.13-.07.2-.08 0 0 0-.02 0-.03.03 0 0 .04 0 .06.1.14.22-.02.32.15 0 .02-.02.03-.03.03-.06 0-.1-.02-.15-.04-.06 0-.07.03-.1.06-.03 0-.03-.03-.07-.02 0 .02 0 0 0 .03-.02.02-.03 0-.05 0 0 0 0 0-.02 0 0 0 0 0 0 .02 0 0 .03.02.03.06-.02 0-.02 0-.03-.02 0 0-.03.05-.07.04-.1 0-.2-.02-.3-.04-.04 0-.1 0-.12 0 0 0-.02 0-.04.02-.03 0-.06 0-.1-.02 0 0 0 .02 0 .03-.03 0-.04 0-.07 0-.05.03-.1.06-.18.06 0 .03 0 .04-.03.05.02.04.02.06.03.1.02 0 .03 0 .04 0 0 .03 0 .07 0 .1.03 0 .05.02.08.04 0-.02.03-.03.05-.05 0 0 0 0 .02.02-.02.1-.07.16-.03.28-.03.07-.15.1-.22.05 0-.03-.02-.05-.02-.08-.04-.02-.07-.04-.1-.06v-.04c-.07 0-.1.03-.17.03-.02.02-.04.05-.07.08 0 .03 0 .05 0 .08-.03.02-.05.04-.07.05-.05.1.02.34.04.4 0 .03 0 .04 0 .07-.06.03-.17 0-.24 0 0 .03 0 .07-.02.1-.07.05-.12.1-.24.07 0-.03-.02-.05-.03-.08 0-.05-.14-.02-.2 0-.18.05-.3.16-.54.18 0 .05 0 .06 0 .1-.06-.02-.1-.04-.14-.06 0-.02 0-.04 0-.07-.06-.02-.12.02-.15-.07-.03 0-.27.08-.3.13h-.04s0-.02 0-.02c-.03 0-.05 0-.07 0 0 0-.02 0-.02 0 .03-.03.04-.04.07-.07 0 0 0-.02-.02-.03-.03 0-.06 0-.1 0-.03 0-.03-.02-.07 0 0-.03 0-.03-.04-.03.04-.05-.04-.1-.1-.13.02-.06.04-.1.07-.15 0 0-.02 0-.02-.02.02 0 .03 0 .05 0 .02-.06.07-.06.04-.13.02 0 .03 0 .04-.02.02 0 .03.02.04.04 0-.02.02-.02.04-.03 0 0 .04-.08.02-.1-.03 0-.07 0-.1 0-.02-.02-.02-.07-.02-.1-.04-.03-.1-.02-.17-.02 0 .04 0 .07 0 .1 0 .02 0 .02-.03.02 0-.02 0-.04-.02-.06-.03.03-.04.08-.06.1-.04 0-.08-.03-.1-.03-.05.07 0 .12 0 .2 0 0-.02.03-.04.06 0 0 .03.02.04.02 0 0 0 0 0-.02.03.02.03.03.07.03 0 .04 0 .13 0 .16 0 .04.05.06.06.1-.02 0-.04.03-.07.03 0 .03.03.02.06.02 0 0 0 0-.02.02 0 0 .02 0 .03.02 0 0 0 0-.02 0 0 .02 0 .03.02.03 0 0 .03.02.04.02-.03.02-.07 0-.1 0 0 .04-.02.05 0 .1-.03-.02-.05-.02-.07-.03 0 0 0 .02 0 .04 0 0 0 .02-.02.02 0-.04-.02-.05-.03-.08-.06 0-.13 0-.18.02 0 .02 0 .03 0 .04 0 .03 0 .03.03.05h-.02s-.04-.02-.05-.04c-.08-.04-.2.02-.27.04 0 .04 0 .05 0 .1 0 0 .03 0 .05 0 0 .02 0 .02 0 .05 0 0 0 0 .04 0 0 .05-.03.05-.05.07-.04.03-.07 0-.12 0 0-.03 0-.04 0-.07.03 0 .02 0 .04 0 0-.02 0-.02 0-.03 0-.03 0-.04-.03-.05-.03 0-.05 0-.07 0-.03.08-.05.14-.08.2-.05.04-.1.08-.14.13.03 0 .04.02.05.04-.03.03-.1 0-.14 0-.02.03-.06.05-.1.08-.02 0-.04 0-.07 0-.03.02-.06.03-.1.05 0 .08.02.17-.05.2-.07.06-.17.04-.22.1 0 .02 0 .03 0 .03s.02 0 .03.02c-.08.07-.2-.02-.28.02-.02-.02-.02-.04-.02-.1-.05.02-.08.02-.13 0 0 .06.03.12.07.14 0 .05 0 .1 0 .13 0 0-.03 0-.06 0v-.02c-.03.02-.13.04-.17.04 0-.03-.03-.06-.05-.08-.03 0-.06 0-.08 0 0 .02 0 .03-.02.04 0 0-.07 0-.07 0-.06 0-.1.04-.15.04 0 0 0 .03 0 .05.02 0 .05 0 .08 0 0 0 0 0-.02.02 0 0 .02 0 .03 0 0 .02 0 .02.02.03-.03 0-.05 0-.08.02 0 .02.04 0 .06.03 0 0 0 .02 0 .02.1 0 .22.02.3.1 0-.02.03-.03.05-.03 0 0 0 0 .02 0 0 .03 0 .04-.02.05.02.02.08.04.1.06 0 .02 0 .03-.02.05.03.04.06.07.08.1.1.05.1 0 .13.1 0 .03-.03.05-.03.1.03.03.07.06.1.12-.04-.03-.06-.06-.08-.08-.03.04-.04.13-.04.2 0 0 .02-.02.02-.02s.02 0 .02.02c0 0-.02 0-.03.02-.03.1-.06.2-.1.27-.1.02-.15-.02-.24-.05-.05.07-.22.04-.33.03-.05 0-.22-.05-.23-.05-.05 0-.1.06-.18.05-.1-.02-.15-.07-.24-.03 0 .02 0 .04-.02.07h-.06c-.07 0-.1.02-.13.06 0 .02 0 .03 0 .05.07 0 .1.04.12.1 0 0-.05.13-.06.15.06.13 0 .5-.1.54 0 .05 0 .1-.02.13 0 .02 0 .02.03.03.03 0 .05-.02.06-.05 0 0 .02 0 .02 0s0 .02.02.03c-.02.02-.04.03-.07.03 0 .02 0 .03 0 .05.03 0 .06 0 .08-.02 0 .05 0 .1 0 .12 0 .03 0 .07 0 .1 0 .04-.04.08-.03.1v.02c.04-.02.08-.04.15-.03 0 0 .03.03.06.02.03 0 .06-.03.1-.04.08-.03.18.05.17.12.02 0 .03 0 .04.02 0 .06.06.13.15.1.03-.07.05-.05.12-.08.02-.02.05-.03.07-.05.1 0 .2 0 .3 0 .03 0 .05-.02.1-.03 0 0 0 .02 0 .02.06-.03.05-.06.1-.1.02-.07.1-.07.18-.08 0-.02 0-.02 0-.04 0-.1.1-.17.2-.22-.03-.02-.05-.03-.07-.04 0-.04-.02-.07-.04-.1.02-.1.15-.26.23-.3 0 0-.02 0-.02-.03.05-.1.17-.04.25-.1 0 0 .02-.02.02-.03.05-.04.14-.04.18-.1.05-.12-.1-.2.07-.33.1-.07.12 0 .2 0 .04 0 .07 0 .1 0 .05.02.08.1.16.08.15-.03.2-.13.3-.2.03 0 .06 0 .1-.02 0-.02.03-.04.04-.05.1-.07.17-.07.28-.02.15.08.14.32.28.4.12.08.2.2.32.25.1.05.2.02.23.15.03 0 .04 0 .06-.02.02.02.02.03.03.04 0 0-.02 0-.03 0 0 .02 0 .02 0 .03.02 0 .04-.02.07-.02 0 0 .03.02.04.03 0 .03 0 .05 0 .06.02.02.05.04.08.06 0 0 .02 0 .04 0 .03 0 .12.26.1.28 0 0-.02 0-.03 0 0 0 0 .02-.02.03 0 .05 0 .08-.04.1v.05c.02 0 .02 0 .03 0h.06c0-.03.03-.08.08-.1 0-.02 0-.04 0-.07.03-.02.04-.04.1-.04 0 0 .02 0 .03-.02 0-.03 0-.06 0-.1-.04 0-.08-.03-.12-.06 0-.07.06-.18.13-.17 0 .05.1.03.14.06.02.02 0 .03.02.05.02.03.04.04.07.06 0-.03.02-.06.03-.1-.13-.12-.3-.22-.5-.28 0 0 0 0 0-.02s.02-.04.05-.05c-.02-.06-.2 0-.26-.06-.05-.05-.14-.13-.17-.2 0-.04 0-.1-.04-.13-.02-.02-.05-.03-.08-.04-.1-.06-.15-.1-.18-.23.02-.02.03-.02.05-.05-.02-.02-.04-.02-.04-.07 0 0-.02 0-.03 0 0 0 0-.02.02-.04.03-.02.1-.04.16-.04 0 0 0-.02 0-.04.06 0 .06 0 .1 0 0 .02.02.03.03.04 0 0-.02.02-.05.02.02.07.06.12.08.17.02 0 .03-.02.05-.03 0-.03.02-.06.03-.1.17.07.06.2.23.26-.04 0-.06 0-.08 0 .05.08.12.1.17.18 0 .03.03 0 .06 0 0 0 .1.04.1.05.04.02.07.06.1.08.1.07.18.1.26.17.02.02.04.04.06.07.03 0 .06.02.1.04 0 .04 0 .05-.04.05 0 .03 0 .15 0 .16 0 .03 0 .05-.02.07 0 .02.02.03.02.07 0 0 0 0-.02 0 .02.04.1.06.12.1 0 0 0 .03.02.05.02.06.1.12.18.1 0 0 0 .02.02.02-.02.03-.05.03-.08.03.03.04.05.08.08.12.06 0 .14-.04.22-.02.05 0 .08.05.15.06-.07.1-.13 0-.2 0-.04-.02-.07 0-.12 0 0 .03 0 .06-.03.08.03.03.05.06.08.1 0 .02 0 .06 0 .1 0 0 0 0 .03.02 0 0 .02-.02.03-.03.04 0 .08.06.08.1.02 0 .03-.03.03-.04.05-.02.07 0 .1.02 0-.1-.03-.13-.06-.2.02 0 .05 0 .07 0h.02c0 .02 0 .02-.02.03.02 0 .03 0 .04.02 0-.03.02-.03.05-.03-.02-.02-.03-.02-.02-.05-.02 0-.03 0-.05 0 0-.02 0-.04-.03-.06.03 0 .06-.02.1-.03.02 0 .06.05.07.08 0 0 0 .02 0 .02.02 0 .03 0 .04-.02 0-.03 0-.05-.02-.08 0 0 0 0 .02 0 0-.04-.23-.15-.28-.16.03-.02.05-.02.07-.04-.02-.02-.03-.04-.04-.06.02 0 .03 0 .06 0 0 0 0 .02 0 .04.02 0 .02 0 .02 0s.02-.02.02-.02c-.05-.07-.1-.13-.14-.2 0-.04 0-.05.02-.06 0 0 0-.02-.02-.03.02-.02.04-.02.05-.05.02 0 .02.02.02.02-.02 0-.02 0-.03.02.02.04.1.03.1.1 0 0 .03 0 .06.02-.02-.03-.05-.04-.07-.07.05 0 .08.02.1.06 0 0 .02 0 .03 0-.02-.04-.05-.04-.06-.07 0 0 0 0 .02 0s.04 0 .05.02c.02 0 .04.02.05.03v-.02c-.03-.05-.1-.06-.1-.13.07-.02.06 0 .12-.05.03 0 .02 0 .03.03.05 0 .07 0 .1-.03.03.07.18 0 .2.08 0 0 0 0 0-.02.03.02.07.03.1.03-.02.02-.04.04-.06.05 0 .03 0 .05-.02.07.05 0 .06-.05.1-.08.03-.03.08-.04.12-.06 0-.02 0-.04.02-.06.03 0 .07 0 .1 0 .1-.05.08 0 .18 0 .02-.02.03-.04.04-.07-.03-.02-.1-.02-.13-.04-.06-.04-.12-.2-.18-.2v-.03c.02-.02.03-.04.07-.05 0-.06.02-.1.03-.15.02 0 .07 0 .08-.02 0-.02 0-.04 0-.07.03-.13.05-.25.2-.25 0-.03.03-.07.04-.1-.02-.02-.03-.02-.04-.04-.02-.07.06-.06.1-.1.13-.06.06-.2.33-.2 0 0 0 0 0-.02 0 0 0 0 .02 0 0 0 .02.03.04.04-.02.02-.03.04-.05.05v.02c.08.1.2.06.3.06.02.02.03.03.04.05-.05.05-.17.07-.22.12 0 0 0 0 0 .02.14.02.25 0 .17.17.18.05.1 0 .2-.05.05 0 .08 0 .1-.02.04 0 .06-.03.08-.05.04 0 .06 0 .1.02 0 0 .04 0 .06-.02.02-.02.04-.04.04-.07-.04 0-.08 0-.12-.02-.05 0-.1.05-.15.03 0-.08-.12-.17-.2-.2-.02 0-.02 0-.02 0 .07-.02.13 0 .2-.02.03-.02.04-.04.06-.08 0 0 .02 0 .03.02.02 0 .02 0 .03 0 .04-.02.04-.04.07-.05.08 0 .16-.03.24-.05.03 0 .04-.03.06-.05.05 0 .1 0 .14 0 0-.02 0 0 0-.03.07 0 .13-.02.2-.03 0 0 0 .02.02.03-.07.05-.17.1-.27.1 0 0 0 0-.02.02.05.04.1.06.13.12-.02 0-.05.02-.1.02 0 .04-.05.07-.05.14-.02 0-.1.02-.13.03.03.04.07.1.1.13.03 0 .04 0 .06 0 .03 0 .04.03.07.05.02 0 .05 0 .08.02.07.03.13.1.2.14.02.03.06.1.1.1 0 0 0 .02 0 .03.06.05.2.07.24.14 0 .04.02.07.03.1.05.2-.06.26-.2.3-.1 0-.16-.04-.23-.03-.03 0-.07.03-.1.04-.07 0-.18-.02-.25-.03-.08 0-.1-.08-.2-.05-.04-.02-.04-.05-.07-.1-.02 0-.07.03-.1.02-.07-.02-.06-.06-.1-.1-.1.07-.2 0-.35.02-.12.03-.22.1-.33.15 0 0 0 0 0 .02-.1.05-.13 0-.2 0-.02 0-.03 0-.04 0-.06 0-.12 0-.18 0 0 0-.02.02-.03.04.02.02.05.03.06.06.03 0 .06 0 .1 0-.05 0-.12.02-.18.02 0 .02-.02.02-.02.03.02 0 .03 0 .05.02-.07 0-.14 0-.22 0 0 0 0 0 .02-.02-.02 0-.04 0-.06 0 0 0 0 0 .02.02-.04.02-.1.02-.1-.02-.06 0-.13.03-.17.06-.02.03 0 .04-.04.05 0 .03-.02.07-.02.1.06 0 .12 0 .18 0 0 0-.02 0-.04.02 0 0-.02.02-.03.04.03 0 .04 0 .05.02 0 .02 0 .02 0 .05h.03c0 .03-.02.04-.04.04 0 .02 0 .04.02.05.02.03.02.02 0 .04-.03 0-.05 0-.07-.03-.02.02-.02.03-.03.05v.03c.07.02.1.04.14.05.02.04 0 .1.02.1.02.03.04.04.07.05 0 0 0 .02 0 .02-.03 0-.05 0-.07.02 0 0 0 .02.02.03.04 0 .1 0 .13 0 0 0 0 0 0 .02 0 0 0 0-.02.02 0 0 0 .02.02.03.02 0 .03-.02.05-.04.05 0 .05.03.1.05 0 0 .02 0 .04-.03.02.04.03.08.05.12.07.02.15-.02.2 0 0 0 0 0 .02 0 0-.04.02-.1.03-.14.1 0 .2.02.25.06.05.03.07.1.13.1.1.04.2 0 .25-.02.03-.05.07-.06.1-.1.1 0 .12.03.2.04.02-.03.05-.04.07-.07h.02c0 .02 0 .03 0 .04 0 0 0 0 .02.02-.03.03-.06.05-.1.08.02.02.04.04.05.06 0 .03-.03.07-.04.1.05.07 0 .12.04.2-.1.1-.13.28-.2.4 0 0 0 .04 0 .07-.04.1-.06.17-.12.22.05.1.1.23.14.35 0 .02 0 0 .03.03-.02.08-.06.18-.07.26.03 0 .05 0 .07 0 .03.04.06.08.1.12.06.1.12.2.2.3.04.1.12.16.1.28.05.08.14.1.2.16.05.08.1.16.14.23.04.1 0 .2.03.3.03.05.07.1.1.14.04.07.15.08.2.14.05.12.1.24.17.36.02.02.04.03.07.05.05.06.12.16.15.24 0 .04 0 .08 0 .13 0 .02-.02.04 0 .08 0 .1.06.23.1.32V44c.06.15.25.12.36.05.03-.03.07-.06.1-.1.07 0 .15.02.2 0 .1-.02.15-.1.23-.1.04-.03.1 0 .14-.02.04-.03.05-.08.1-.1.15-.1.35-.1.5-.18.04-.03.03-.06.05-.1 0-.05.08-.1.12-.12.08-.02.16-.05.24-.08.05 0 .1.02.14.02 0 0 .03-.02.05-.03.03-.06 0-.13.07-.16.06-.03.12 0 .17-.03 0-.02 0-.05.02-.08.03-.08.13-.1.23-.1 0-.08 0-.2.02-.28.03-.02.08 0 .1 0 .05-.04.05-.1.08-.15.02-.02.05-.05.08-.07.04-.05.07-.1.1-.16 0-.05-.07-.06-.1-.1-.04-.04-.08-.1-.13-.14-.03-.02-.06 0-.1 0-.06-.04-.12-.07-.18-.1-.04-.03-.12-.1-.13-.16-.03-.05 0-.1-.02-.14 0 0-.02 0-.04 0 .03-.05.04-.08.04-.16-.04.04-.07.08-.1.1-.07.07-.13.1-.2.2 0 .02-.03.05-.04.08-.03.02-.04 0-.05.04-.03 0-.05 0-.07 0 0 0 0 0 0 .02-.05.02-.26 0-.32 0 0 0 0 0 0 .02-.05 0-.1 0-.14 0 0-.05 0-.05-.04-.06-.02-.06.05-.08.05-.14 0-.02 0-.17-.02-.18 0-.02-.02 0-.03-.04 0 0-.02 0-.03 0-.06.04-.1.18-.05.26 0 .05 0 .06-.04.06-.02-.04-.06-.14-.06-.2-.02-.02-.02-.03-.05-.02-.03-.07-.05-.08-.02-.15 0 0-.02-.02-.02-.03 0-.02.02-.02.03-.05-.06-.06-.15-.05-.18-.12-.02 0 0 0 0-.04-.02 0-.04 0-.07 0-.05-.13-.1-.24-.14-.37 0 0-.04 0-.06 0 0 0-.02 0-.03 0 .03-.02.04-.04.05-.05h.03c0-.03 0-.05 0-.08 0-.02.1-.03.14-.03.04-.03.03-.07.08-.1h.02c0 .03 0 .05 0 .07.03.05.12.05.17.03 0 .04.08.1.1.14v.06c.02.06.1.17.12.22.04.06.15.06.2.1.04.03.07.07.1.1.07.05.13.05.22.08.04 0 .07.05.13.06.02-.04.12-.1.12-.12.06-.03.13-.05.2-.03.04 0 .03.02.06.02 0 .03 0 .07.02.1.02.05.07.08.07.14.04.02.08.05.12.06h.16c.02.02.03.03.05.05.1 0 .2 0 .28 0 .05.02.08.06.14.07.1 0 .17-.02.23-.03h.2c.03-.02.05-.04.1-.05.06.1.37-.02.46-.02.04.03.04.06.03.14.04 0 .07 0 .1.02 0 .05.03.1.04.13.03.05.08.02.13.05.02.03.04.06.05.1.07.07.25.14.4.1 0 .02-.02.03-.04.05-.08.1-.13 0-.23.05.02.07.27.32.36.33.03 0 .06-.02.08-.03.1-.03.26-.08.18-.2 0 0 0-.03 0-.05.03-.02.07-.02.1-.02 0 .05 0 .14 0 .2.02.02.1.05.08.1 0 .03-.06.06-.07.1 0 .1.03.2.05.3.02.13.04.26.07.4.04.16.13.3.2.42.04.1.07.2.1.3.02.05.03.1.04.16.03.03.05.07.08.1.05.1.1.22.14.32.02.07.04.15.06.22.04.04.08.08.12.13.06 0 .14-.05.16-.1.02-.02 0-.06.03-.08.05-.02.1-.04.16-.06 0 0 0-.02-.03-.03.02-.05.04-.1.05-.15.02 0 .07 0 .1 0 .03-.08 0-.17 0-.24.02-.14.2-.3.07-.43.03-.08-.03-.18 0-.28 0-.03.02-.07.03-.1.04-.03.08-.04.13 0 .03-.03.05-.08.06-.12.04-.02.1 0 .15-.03.04-.03.03-.1.07-.14.04-.02.08-.04.12-.06.05-.03.07-.1.12-.12.03-.02.06-.02.08-.04.06-.07.13-.15.2-.23.04-.03.13-.02.18-.06.07-.03.1-.1.15-.17-.02-.03-.02-.05-.03-.08.04-.05.1-.06.17-.1.02-.02.04-.04.06-.06.02 0 .04.03.04.06 0 0 .02 0 .02 0 .02-.02.03-.03.04-.05.02 0 .03.04.04.07h.05c0-.02 0-.03 0-.05 0 0 .02.02.04.02 0 0 0-.02.02-.04 0 0 0 0 .02 0 0 0 0 .02 0 .03h.04c0-.02.03-.04.03-.08.02.02.04.05.05.07h.03c0-.04.02-.05.06-.06 0-.04 0-.08-.03-.12 0-.02 0-.04 0-.05 0-.02.02-.02.02-.02 0 .03.03.05.05.08.05 0 .07 0 .1-.03.1.1.08.42.23.46.02 0 .04 0 .05 0v.05c.04.02.06 0 .08.02.06.02.08.1.1.15-.02 0-.04 0-.07 0 .02.03.05.05.07.06 0 0 .02-.03.02-.04.07.08.13.23.1.37 0 .1-.06.16-.06.25 0 0 .02 0 .03.02.02-.02.04-.04.1-.05 0 .02-.02.03-.02.05 0 0 0 0 .02.02.03-.02.03-.04.07-.04v.04c.05.05.06-.05.1-.08.12-.1.18-.02.2-.22.07.04.07.15.14.17.03.12.04.24.06.35.03.1.1.2.13.3.03.1 0 .2 0 .28.02 0 .03 0 .05 0-.02.06-.1.23-.07.28 0 0 .02 0 .03.02-.03.1-.1.26-.06.37.02 0 .04 0 .05-.02.05.06.1.1.13.18 0 0 .02 0 .04 0 .03.04.04.06.04.13 0 0 .02 0 .03 0 .02.04.05.03.07 0 0 .02 0 .02 0 .02 0 .1 0 .2.04.3.02.02.04.05.05.08 0 .05-.02.1 0 .13.03 0 .05.03.08.05 0 .02 0 .04.02.06-1.43 7.9-8.34 13.9-16.66 13.9zm-7.22-31.38zm15 9.9c-.03 0-.03 0-.06 0-.02 0-.04 0-.07.02-.02-.02-.02-.04-.02-.05 0-.02-.02-.02-.02-.02s0 .02 0 .03c-.04 0-.05 0-.08 0 0 0-.02-.04-.04-.06-.04.05-.05.18-.02.24.02.02.08 0 .14 0 0 .02-.02.03-.03.04 0 0 0 .02 0 .03.02 0 .03.02.05.03-.03 0-.06 0-.1 0 0 0 0 .02 0 .03v.04c.02-.02.04 0 .08 0 0 .04.05.04.07.08 0 .04-.02.08-.02.13 0 .03 0 .06 0 .07 0 .07.06.24 0 .28-.03.03-.12 0-.17.03-.2.04-.5.06-.56-.13-.08-.02-.17-.04-.23-.06-.03-.13.04-.26.04-.37.02 0 .02 0 .03.02 0 0 0 0 .02 0 0-.02 0-.04 0-.06.02 0 .02 0 .04 0 0-.1 0-.3.18-.22 0 0 0 0 0-.02-.03-.1-.12-.03-.16-.07 0-.03-.04-.06-.06-.1 0-.02 0-.05-.02-.07-.03-.04-.07-.1-.1-.12-.02 0-.03 0-.04 0-.04-.06-.05-.12-.1-.15 0-.02 0-.02-.02-.02-.02-.03 0-.05-.03-.07-.03-.05 0-.14.02-.2-.02.02-.03.04-.04.07 0-.08 0-.15-.07-.2 0 0-.04 0-.05-.02v-.02c0-.05.05-.05.07-.08.04-.06.06-.13.08-.2.08.03.14-.02.2-.05 0 0 0 0 .02 0 0 0 0 0 0-.03.08-.02.1-.08.15-.1.03 0 .06 0 .08 0 .1-.03.16-.14.27-.13.07 0 .1.04.14.05.05 0 .06-.03.1-.04.02 0 .06.02.1.03 0 0 .02.02.03.04-.02 0-.03.02-.05.03.04.1 0 .13-.05.2 0 .05.05.07.08.08-.1 0-.18 0-.27-.02-.02 0-.02.02-.06.02 0 .02 0 .04-.02.06-.02.04-.04.03-.05.06.02.03.04.05.07.06 0 0 0 0 .02 0-.04.04-.14 0-.22 0 0 0 0 0-.02 0v.07c.03 0 .1.02.12.02.02.1.1.13.1.24h.05c0 .02.03.05.05.07.05 0 .1 0 .15.05-.02.04-.05.1-.06.13 0 .03 0 .06 0 .1.02 0 .03 0 .03 0s0 .02 0 .04.04.05.05.07v.02c.02-.05 0-.15.02-.2.06 0 .1-.02.18-.02 0 .04 0 .12.03.15.03.04.1.04.13.1 0 .03-.02.04-.04.05-.02 0-.03-.02-.05-.03 0 .02 0 .04 0 .05zm-5.3-.17c-.03 0-.04 0-.07-.02 0 0 0 0 0-.02.02.02.03.02.04.03 0 0 0 0 0 .02zm14.24 7.07c-.24 0-.22-.15-.26-.33 0 0 0 0-.02 0-.04-.03-.02-.1-.04-.14-.04 0-.07 0-.1 0-.1-.16.07-.4.1-.53 0-.04 0-.07 0-.1.02-.06.04-.08.02-.15.06-.04.1-.04.2-.03 0 .05-.02.1-.02.15.04 0 .05.02.08.02.05 0 .07-.03.12 0 .03.02.05.05.08.08-.03.36-.07.72-.12 1.07 0-.02-.03-.03-.04-.05zm-32.13-4.56zm0-.02s-.02 0-.02 0h.02zm22.3 8.36c-.03-.04-.08-.04-.1-.1-.05-.02-.04 0-.08.02 0 .07 0 .16-.05.2-.03.02-.05.02-.07.06-.02 0-.03-.02-.04-.04-.02 0-.03 0-.05 0 0 .04.02.07.03.1 0 0 0 .02 0 .02-.02 0-.04.02-.06.02 0 .04 0 .05.02.07 0 .02-.03.04-.04.05-.03 0-.03 0-.04-.02-.02.02-.04.03-.06.05 0 .03 0 .03.02.05 0 0 0 0-.02.02-.02 0-.02 0-.04-.02-.03.02-.06.04-.1.06 0 .02 0 .03 0 .05-.03 0-.07-.04-.12-.02 0 0-.03.03-.04.04-.02 0-.05 0-.07 0 0 0-.03.02-.05.03-.03 0-.06 0-.08 0 0 .14-.06.16-.1.25 0 .07.05.2.08.25 0 .02-.02.04-.02.07.02.02.04.05.06.07.02.06-.1.32-.14.35-.02 0-.04.02-.05.02-.03.02-.07.15-.06.2.03.07.07.13.1.2 0 .03 0 .06-.02.1-.02.08.04.1.05.14 0 .04 0 .07 0 .1.07.07.2.05.24.13.1 0 .1-.06.18-.08.05 0 .1 0 .14-.02.1-.05.14-.32.17-.44.1-.32.2-.64.3-.95 0-.07 0-.13 0-.2.03-.06.1-.1.1-.17-.03-.04-.06-.1-.06-.17 0 0 .02 0 .03 0 .02.02.05.07.08.1.03-.03.08-.1.07-.13-.02-.04-.04-.07-.05-.1-.04-.1-.03-.3-.08-.37zm-21.2-9.55zm-1.12 1.17zm.02.03zm4.33-2.58c0-.02-.03-.02-.04-.02 0 0-.02.02-.03.04-.03-.03-.05-.08-.06-.1v-.02c.1-.03.1 0 .15-.07 0-.02-.02-.02-.03-.02-.02 0-.05.02-.1.03 0 0-.04-.03-.05-.06.02-.04.05-.06.08-.1 0 0 .02 0 .03-.02-.06-.03-.13-.06-.22-.05 0 0 0 .03-.02.04-.1.03-.17-.02-.23-.07.04-.03.06-.06.08-.08-.02 0-.05-.02-.08-.03-.07 0-.07.08-.14.1 0-.16.22-.26.16-.4.03 0 .06 0 .1-.02 0 0 0-.02 0-.02s0 0-.02-.02c0 0 0 0-.02 0-.05 0-.1.02-.15.03-.13.07-.28.3-.33.46.02.03.04.05.06.08-.06.06-.12 0-.16.1 0 0 0 .02 0 .02.03 0 .06.02.1.03-.07.05-.18.06-.22.14 0 .02 0 .05.02.07.06 0 .12 0 .2 0 .07 0 .14 0 .22.02.07.02.15 0 .16-.05.03 0 .05 0 .07 0v.05s0 0 0 .02c.02 0 .03 0 .03 0 .03-.02.03-.03.04-.05.03 0 .07 0 .1 0-.07.04-.1.12-.2.14 0 .02 0 0 0 .03.03 0 .06.02.1.02.06-.08.18-.14.22-.22 0 0 0 0 .02 0 .02.03.03.05.04.07 0 .04-.02.07-.04.1 0 0 0 0 0 .02.02 0 .03 0 .04 0 .02 0 .03-.02.05-.03 0 .02 0 .04 0 .07.04.02.08.03.1.04.03-.06.08-.13.07-.2-.08 0-.08-.02-.07-.07zm10.13-.03s0 0-.02.02c0 .02 0 0 .04 0 0 .02-.02.03-.02.04 0 0 .02.02.03.02 0 0 0 .02 0 .03 0 0 0 0 0 .02.02 0 .04 0 .05 0v.02s.02 0 .02 0c.08-.08.06-.25.05-.37 0 0-.02 0-.02 0s0 .03 0 .05c0 0-.12.05-.15.07 0 .02 0 .02.02.03 0 0 0 0-.02.02 0 .03.02.02.03.04zm3.05 1.57c.1 0 .2 0 .28 0 .02-.02.03-.04.03-.07-.03.02-.06.02-.1.04 0-.02 0-.03 0-.04-.07 0-.1 0-.14-.03-.06 0-.1 0-.15.02 0-.02 0-.02-.03-.02 0 0 0-.02 0-.02s-.02 0-.03 0c-.03 0-.04 0-.06-.02 0 0 0 0 0 .02H522c0 .02 0 .04 0 .06.06.02.17.02.23.04v.03zm-1.85-.37c.02-.02.03-.05.06-.07 0-.02-.02-.03-.03-.06 0-.06.06-.14.08-.2-.04 0-.08.02-.12.02-.13.04-.2.04-.3-.02-.05.05-.13 0-.16.1.03.05.07.03.12.06.12.06.23.13.36.17zm-7.27-10.4c.03 0 .05-.02.08-.03.03-.02.07-.03.1-.04 0 0 0 0 0-.02-.06 0-.13.03-.2.03-.03.02-.07.05-.12.07 0 0-.04.02-.04.03.04 0 .07 0 .1-.02.03 0 .06 0 .1-.02zm-2.95 5.13c0 .02-.06.03-.07.05 0 .02 0 .02 0 .02.05 0 .08-.02.1-.04 0 0 0-.02 0-.02s-.02 0-.03 0zm9.06 4.77c.02-.02.03-.03.05-.05.03-.02.06 0 .1 0 0-.03.04-.06.03-.12 0-.03 0-.06 0-.1 0 0 0-.04 0-.05.03-.06-.05-.15-.1-.16-.04.05-.1.05-.2.07 0 0 0 .02 0 .02 0 .05.05.07.07.13.02.12-.08.25.06.28zm-.03 7.1c-.02.03-.03.07-.06.08v.04c.02 0 .03 0 .03 0 .06 0 .05-.05.1-.07-.02-.02-.04-.03-.06-.03zm-2.75-11.35c.03 0 .04-.03.05-.05.02 0 .04 0 .06.02-.02.06-.1.14-.06.2.05-.02.1-.05.15-.1h.02c0 .03 0 .05 0 .07 0 0-.02.03-.04.03 0 .04 0 .07.03.1s-.06.1-.07.17c.03 0 .06 0 .1.02 0 0 .02 0 .02-.04.03 0 .05.02.07.02.1 0 .06-.05.18-.02-.03.04-.07.06-.08.12.02.03.04.04.06.07.03-.02.05-.02.08-.02 0 .1-.05.15 0 .23-.15 0-.28.03-.33.12h.1v.02c0 .02 0 .06 0 .1-.06.07-.18.08-.2.12 0 0 0 0-.02.02.02 0 .03.02.05.04.05 0 .1 0 .16 0 .04.02.1.04.12.06.07 0 .1-.03.15-.05 0 .04-.05.07-.05.1-.1.03-.15-.02-.23.02-.02.02 0 .05-.06.04 0 .08-.15.18-.23.2.02 0 .04.02.06.03 0 0 0 0 .02.02.04-.04.08-.07.14-.1.03.02.05 0 .06 0 .07.03.14.07.14-.06.13-.03.17 0 .3 0-.02 0-.02-.02-.02-.03.05 0 .1-.02.16-.03.04 0 .05.02.07.02.02 0 .05 0 .08-.02.04 0 .08 0 .12.02.05 0 .06-.05.13-.04 0-.04.06-.05.1-.06v-.06h-.02s-.15-.02-.2-.02c.07-.02.25-.14.27-.2 0-.03 0-.07-.02-.1-.05-.05-.17-.12-.24-.03-.03 0-.05 0-.07 0 .08-.14.03-.12-.05-.22 0 0 0-.1-.02-.13-.03-.04-.06-.08-.1-.12-.03-.02-.07 0-.1-.04-.04-.05-.03-.13-.06-.2-.02-.03-.15-.14-.2-.14-.1 0-.1.05-.2 0 .07 0 .16 0 .2-.05-.02-.02-.04-.03-.06-.04.12 0 .17-.2.2-.28.02 0 0 0 0-.03-.06-.06-.3-.03-.4-.03 0 0 0 0-.02 0 0-.14.17-.13.2-.22.04-.02.02-.02 0-.04-.07-.03-.18.06-.26.04-.02-.02-.04-.03-.07-.05-.02 0-.03.02-.05.04.02.02.03.04.04.06-.04 0-.06 0-.1.02.03.04.04.07.06.1-.03 0-.05 0-.08 0s-.04.02-.05.04c.02.02.04.04.06.06-.03.02-.05.02-.06.03 0 .03 0 .05 0 .08 0 0-.05.12-.06.13.02 0 .03.02.04.02zm-1.8-2.25c.1.04.16 0 .18-.08 0 0 0-.03 0-.04.04 0 .08 0 .12-.02.03-.05.06-.17.02-.22-.03-.03-.1 0-.15-.03-.03 0-.04-.02-.06-.03 0-.03 0-.06 0-.1 0 0 0 0 0-.02-.1-.04-.17-.02-.2-.1-.04-.03-.08-.03-.13-.03v.1c-.07.06-.2.03-.3.02 0 .03.03.06.03.1-.06 0-.1-.04-.13-.1-.04-.02-.1 0-.14.04 0 .03.02.05.02.08 0 0-.02 0-.03 0-.05-.02-.1-.07-.12-.12 0 0-.02 0-.03.02-.02.03 0 .1 0 .15-.04.03-.08.02-.12.05-.02 0-.04.03-.06.05-.02-.03-.04-.06-.07-.1 0-.02.05-.06.04-.1-.03-.1-.18-.14-.28-.16 0 0-.02.02-.03.03 0 0 0 0-.02 0 .03.03.06.05.07.1-.1.06-.16-.12-.2 0 0 .02.02.04.04.06 0 0 0 0 0 .02-.05 0-.13 0-.17.03 0 .03 0 .04 0 .06.07.1.2-.02.3 0 .06 0 .1.03.16.05 0 .02 0 .04 0 .05 0 0 0 .03-.02.04-.07.04-.3.03-.35.1 0 .02 0 .02.02.03.05.03.17 0 .22-.02.05.06.07.1.17.1-.06.08-.13.1-.2.15.08.08.3 0 .4.05.04.02.07.04.1.07.06.03.14.03.2.04.18.04.18-.07.25-.1.06 0 .12 0 .2-.02.08-.03.16-.1.23-.15zm1 3.4s-.03 0-.04 0c0 .03 0 .04 0 .07.03 0 .05 0 .08 0 0 .02 0 .04 0 .08.08 0 .13-.03.18-.04.03 0 .05 0 .07 0 .06-.04.1-.08.16-.1.05-.02.1-.02.15-.03 0 0 .02 0 .02 0 .03 0 .06 0 .1 0 0-.08.05-.1.06-.16.03-.08-.04-.24-.08-.3.1 0 .1-.03.15-.1 0-.07-.04-.14-.06-.2-.07-.05-.2-.03-.27 0-.05 0-.06 0-.07-.05-.1 0-.13.04-.15.13 0 0-.02 0-.04 0 0 0 0 .02 0 .03h.1c0 .04-.03.05-.08.07 0 0 0 .02 0 .04-.07 0-.16 0-.23-.04-.03.03-.04.05-.05.1v.02c.03 0 .05-.02.08 0-.02.03-.03.03-.02.07-.02 0-.04 0-.06 0 0 .02.02.02.02.03 0 0-.02.02-.02.03.03.02.2.05.22.03 0 .02 0 .03 0 .04-.04.02-.07 0-.1.06 0 .02 0 0 0 .03 0 0 0 .02 0 .03 0 0-.02 0-.02 0 .03 0 .06 0 .1 0-.02.04-.07.04-.1.05-.03.03-.03.06-.04.08-.02 0-.1 0-.12 0 0 0 0 .02 0 .03.02 0 .05.02.1.02h-.02zm.83-.94c0 .02 0 .04 0 .07 0 0 0 0 .02 0 0 0 0 0 .02-.02-.02-.02-.02-.05-.02-.07 0 0-.02 0-.03 0zm7.35 4.98s0 0 0-.03c.1 0 .12-.06.2-.06 0-.03-.02-.04-.03-.05.03-.04.1-.07.12-.1-.07.02-.14.04-.2.06-.04 0-.08 0-.12 0 0 .02 0 .03 0 .04 0 0-.1.03-.12.03 0 .04.02.05.03.08.02 0 .07 0 .1.03zm-19.07 1zm4.02-9.7c.03 0 .07-.07.03-.1-.03.04-.1.05-.04.1zm-4 9.73s-.02 0-.02-.02c0 0 0 .02 0 .03zm.02.1s0 0 .02 0c-.03-.02-.05-.06-.06-.1 0 .05.02.07.03.1zm8.46-11.26c-.05.03-.1.07-.13.1-.03.02-.07.03-.1.05-.02 0-.02.05-.03.08 0 0-.04.06-.03.07 0 0 .08-.02.1-.02.02 0 .05-.03.06-.04 0-.02.02-.02.02-.03.02 0 .04 0 .06-.02.02-.02.04-.03.06-.05 0 0 .03 0 .04 0 .03-.02.03-.04.07-.06 0-.03-.1-.1-.12-.1zm.2-.64s-.02 0-.03 0c-.1 0-.15-.07-.27-.05-.03.02-.15.04-.17.06 0 .04.06.07.08.07.1.02.2 0 .3 0 .02 0 .06.02.07.03.02 0 .02 0 .04.02.02 0 .05-.03.06-.04-.05-.02-.13-.02-.16-.05.03 0 .06-.02.1-.03zm-4.87 20.2c.1 0 .28-.02.33-.08.02-.04.03-.14.05-.18-.03-.03-.3-.04-.38-.03-.05.1-.04.22 0 .3zm-2.23-4.7c0 .02 0 .06 0 .1.07 0 .08-.02.14-.03.08 0 .13.03.14-.06-.04-.03-.17-.02-.25-.02 0 0 0 0-.02.02zm1.25-5.86s-.02 0-.04-.02c0-.06.06-.06.1-.1.02-.02.03-.1.05-.12-.03-.02-.06-.04-.1-.06-.02.07-.15.18-.13.27.04.15.28.1.3 0-.08-.14-.1.02-.2.04zm-1.18 8.18c.02 0 .02.02.03.03 0 .02 0 .03 0 .05-.02 0-.04.02-.06.03 0 0 0 0 0 .02.04 0 .1 0 .15 0 0-.06 0-.1.02-.15h-.03s-.06.02-.1.02zm-.6-2.57c-.06 0-.13 0-.17-.05-.03 0-.04 0-.05.02-.03 0-.06 0-.08 0-.03 0-.04.02-.1.02-.06-.02-.1-.04-.2-.04 0 0-.03 0-.05 0 0 0 0 .02 0 .02v.02c.03.02.1.02.14.06.02.05-.06.1.05.14-.08.07-.26.04-.37 0 0 0 0 .02-.02.03.02.05.06.06.1.1.03-.02.03-.04.06-.05.05 0 .1.02.15.02.05 0 .1 0 .15 0 .03.02.07.1.12.1.03-.07.06-.12.13-.16.02.02.03.03.04.05.06.02.1-.04.13-.05.03 0 .05 0 .06 0 .08-.03.1.04.15.06.03-.02.04-.04.06-.07-.06-.1-.26-.1-.3-.22zm-1.58.27c0 .02.16.1.2.1.03 0 .04-.05.1-.04.02 0 .03.03.07.03 0 0 0 0 0-.02-.05-.07-.22-.1-.34-.1 0 .02-.03.03-.04.04z"/></g></g></g><g fill="#312853"><g><g><path id="Shape" d="M175.9 195.82l-35.96-6.35c-1.06-.2-2.08.52-2.27 1.58l-4.53 25.7c-.2 1.06.52 2.07 1.58 2.26l12.2 2.16-.56 3.2-3.03 2.13-.1.63 16.7 2.95.1-.64-2.1-3.02.55-3.2 12.2 2.14c1.07.2 2.08-.52 2.27-1.58l4.54-25.7c.18-1.06-.53-2.07-1.6-2.26zm-4.95 24.3l-34.68-6.14 3.86-21.83 34.68 6.13-3.85 21.83z"/></g></g></g><g fill="#312853"><g><g><path id="Shape" d="M330.68 221.87c1.06.2 2.07-.52 2.26-1.58l3.07-17.35c.2-1.07-.52-2.08-1.58-2.27-1.06-.2-2.08.52-2.27 1.6l-.36 2.03-2.7 15.3c-.2 1.07.5 2.08 1.58 2.27zm9.88-14.7c-.2-.1-.4-.18-.63-.22-1.06-.2-2.08.52-2.26 1.6-.15.83.26 1.64.96 2.03 4.9 3.2 7.67 9.08 6.6 15.2-1.45 8.14-9.23 13.6-17.4 12.15-8.15-1.44-13.6-9.22-12.15-17.38 1.08-6.1 5.7-10.7 11.4-12 .8-.14 1.45-.76 1.6-1.6.18-1.06-.53-2.08-1.6-2.27-.22-.04-.44-.03-.65 0-7.27 1.58-13.23 7.4-14.6 15.2-1.82 10.27 5.04 20.08 15.33 21.9 10.28 1.82 20.1-5.05 21.9-15.33 1.4-7.8-2.2-15.3-8.5-19.28z"/></g></g></g><g fill="#312853"><path id="Shape" d="M444.2 226.7c.2.13.46.2.7.2.4 0 .77-.17 1.04-.48l21.14-25.3c.33-.4.4-.92.18-1.4-.22-.46-.7-.72-1.2-.72h-8.42l7.87-15.85c.3-.6.12-1.34-.43-1.72-.54-.37-1.3-.3-1.73.2l-22.38 24.4c-.36.38-.45 1-.24 1.47.22.48.7.83 1.22.83h9.76l-8 16.7c-.28.6-.07 1.3.5 1.66zM455 207.5c.2-.42.17-.86-.08-1.25-.24-.4-.67-.58-1.12-.58h-8.84l13.93-15.24-4.6 9.25c-.22.4-.2.93.05 1.33.24.4.67.67 1.13.67h7.72l-12.52 14.95 4.34-9.13z"/></g><g stroke="#312853" stroke-width="3" transform="matrix(.978 .208 -.208 .978 548.119 255.526)"><rect width="33" height="20" y="15" rx="2"/><path d="M30 24c0-1.1.83-2.33 1.85-2.74l11.3-4.52c1.02-.4 1.85.15 1.85 1.26v15c0 1.1-.83 1.67-1.85 1.26l-11.3-4.52C30.83 29.34 30 28.1 30 27v-3z"/><circle cx="8.5" cy="9.5" r="5.5"/><circle cx="22" cy="8" r="7"/></g><g stroke="#312853" transform="matrix(.982 -.191 .191 .982 153.668 10.176)"><g><path id="Shape" d="M23.5 26.66L21.9 35M10.3 26.66l1.45 8.9M16.82 25.94V35M29.67 20.68l-2.72 11.6c0 1.1-1.44 1.46-2.9 2.18-.9.36-1.98 1.63-3.25 1.8-1.1.2-2.35-.53-3.62-.53s-2.53.73-3.62.54c-1.27-.18-2.35-1.45-3.26-1.8-1.44-.73-2.9-1.28-2.9-2.2L4.9 20.68"/></g><ellipse cx="17" cy="4.353" rx="4.343" ry="4.353"/><path d="M12.48 3.8C7.23 5.27.53 8.7.53 15.43c0 0-.54 5.44 7.96 5.44 0 0 3.07.36 5.6-.73 2.54-1.1 6.16-.54 8.5.73 0 0 10.87 2 10.87-5.44 0-7.08-6.7-10.16-11.95-11.6"/></g><g><path stroke="#312853" stroke-width="2" d="M608.52 15.82l9.23-6 10.1 15.55-9.23 6z"/><path id="Line" stroke="#312853" d="M612.8 12.3L605.36.85" stroke-linecap="square"/><path stroke="#312753" stroke-width="3" d="M626.26 33.03l-2.02-3.1" stroke-linecap="square"/><path stroke="#312853" d="M623.86 36.06l6.15-4" stroke-linecap="square"/><path stroke="#312853" d="M613.1 19.48l4.1-2.66" stroke-linecap="square"/><path stroke="#312853" d="M615.1 22.6l4.1-2.67" stroke-linecap="square"/><path stroke="#312853" d="M617.13 25.7l4.1-2.67" stroke-linecap="square"/></g></g></g></g></g></svg>