<svg xmlns="http://www.w3.org/2000/svg" width="36" height="30"><title>twitter</title><desc>Created with Sketch.</desc><g fill="none"><g fill="#55ACEE"><g><g id="twitter"><g><g><path d="M31.58 5.54v-.02c.32-.12.56-.38.8-.57 1.13-.86 1.85-2 2.4-3.45-.3.17-.62.34-.92.5-.94.48-2.54 1.17-3.76 1.27-1.45-1.32-2.96-2.35-5.8-2.3-.3.03-.6.07-.9.1-.58.13-1.13.3-1.63.5-2.08.9-3.5 2.6-4.15 4.93-.26.93-.37 2.5-.04 3.45-1.17 0-2.3-.2-3.3-.43C10.42 8.57 8 7.28 5.33 5.18c-.8-.6-1.56-1.3-2.18-2.1-.2-.24-.52-.46-.67-.75 0 0-.02-.02-.03-.02-.3.58-.6 1.2-.8 1.92-.72 2.8.43 5.13 1.66 6.66.37.46.97.74 1.34 1.17h.04c-.28.1-.76-.04-1-.1-.58-.1-1.07-.2-1.55-.4-.25-.13-.5-.25-.75-.37 0 3.08 1.55 5.1 3.46 6.28.62.4 1.5.92 2.4.96-.5.4-2.56.23-3.28.15.9 2.3 2.28 3.85 4.65 4.7.63.2 1.37.4 2.2.38-.44.52-1.37.95-2 1.3-1.26.75-2.73 1.23-4.4 1.6-.66.14-1.37.1-2.1.23-.8.13-1.62-.07-2.33-.1.2.14.43.27.64.4.67.4 1.35.75 2.1 1.07 1.32.58 2.73 1.02 4.3 1.4 3.17.8 7.63.44 10.4-.42 7.67-2.4 12.53-7.98 14.36-16.22.32-1.4.36-3.02.34-4.7.4-.3.77-.6 1.15-.9.95-.77 1.83-1.83 2.5-2.87V4.4c-1.26.4-2.57 1.12-4.17 1.14z"/></g></g></g></g></g></g></svg>